<?xml version="1.0" encoding="iso-8859-1"?>
<!-- Generator: Adobe Illustrator 19.0.0, SVG Export Plug-In . SVG Version: 6.00 Build 0)  -->
<svg version="1.1" id="Layer_1" xmlns="http://www.w3.org/2000/svg" xmlns:xlink="http://www.w3.org/1999/xlink" x="0px" y="0px"
	 viewBox="0 0 504.123 504.123" style="enable-background:new 0 0 504.123 504.123;" xml:space="preserve">
<path style="fill:#B2A47D;" d="M377.698,223.756H126.425c-20.527,0-37.234-16.691-37.234-37.234V43.831
	c0-20.535,16.699-37.234,37.234-37.234h251.274c20.535,0,37.234,16.691,37.234,37.234v142.698
	C414.933,207.065,398.241,223.756,377.698,223.756z M126.425,43.831v142.698H377.73l-0.031-142.698H126.425z"/>
<path style="fill:#9E906C;" d="M377.698,39.176H126.425c-20.527,0-37.234,16.707-37.234,37.234v110.119
	c0,20.535,16.699,37.234,37.234,37.234h251.274c20.535,0,37.234-16.691,37.234-37.234V76.41
	C414.933,55.883,398.241,39.176,377.698,39.176z M377.73,219.108H126.425v-32.579V76.41V43.831h251.274l0.032,142.69h-0.008
	L377.73,219.108z"/>
<path style="fill:#935116;" d="M464.951,478.913c0,10.279-8.35,18.613-18.613,18.613H57.777c-10.279,0-18.597-8.342-18.597-18.613
	L1.946,202.039c0-10.279,8.326-18.613,18.613-18.613h463.006c10.287,0,18.613,8.342,18.613,18.613L464.951,478.913z"/>
<path style="fill:#7C400F;" d="M1.946,202.031c0-10.279,8.326-18.613,18.613-18.613h463.006c10.287,0,18.613,8.342,18.613,18.613
	l-37.226,276.874c0,10.279-8.35,18.613-18.613,18.613"/>
<path style="fill:#A85E22;" d="M504.123,167.908c0,10.295-8.35,18.613-18.621,18.613H18.613C8.342,186.522,0,178.196,0,167.908
	v-20.157c0-10.279,8.35-18.613,18.613-18.613h466.881c10.279,0,18.621,8.342,18.621,18.613v20.157H504.123z"/>
<g>
	<path style="fill:#C47337;" d="M0,147.759c0-10.279,8.35-18.613,18.613-18.613h466.881c10.279,0,18.621,8.342,18.621,18.613"/>
</g>
<g>
	<path style="fill:#B26328;" d="M48.467,234.602c0,3.757-3.04,6.782-6.774,6.782H14.564c-3.757,0-6.798-3.033-6.798-6.782l0,0
		c0-3.757,3.048-6.782,6.798-6.782h27.128C45.434,227.82,48.467,230.853,48.467,234.602L48.467,234.602z"/>
	<path style="fill:#B26328;" d="M112.451,234.602c0,3.757-3.033,6.782-6.782,6.782h-27.12c-3.757,0-6.798-3.033-6.798-6.782l0,0
		c0-3.757,3.048-6.782,6.798-6.782h27.12C109.426,227.82,112.451,230.853,112.451,234.602L112.451,234.602z"/>
	<path style="fill:#B26328;" d="M176.435,234.602c0,3.757-3.04,6.782-6.782,6.782h-27.128c-3.757,0-6.782-3.033-6.782-6.782l0,0
		c0-3.757,3.033-6.782,6.782-6.782h27.128C173.403,227.82,176.435,230.853,176.435,234.602L176.435,234.602z"/>
	<path style="fill:#B26328;" d="M240.412,234.602c0,3.757-3.033,6.782-6.766,6.782h-27.136c-3.749,0-6.774-3.033-6.774-6.782l0,0
		c0-3.757,3.033-6.782,6.774-6.782h27.136C237.379,227.82,240.412,230.853,240.412,234.602L240.412,234.602z"/>
	<path style="fill:#B26328;" d="M304.396,234.602c0,3.757-3.033,6.782-6.766,6.782h-27.136c-3.749,0-6.774-3.033-6.774-6.782l0,0
		c0-3.757,3.033-6.782,6.774-6.782h27.136C301.363,227.82,304.396,230.853,304.396,234.602L304.396,234.602z"/>
	<path style="fill:#B26328;" d="M368.388,234.602c0,3.757-3.033,6.782-6.774,6.782h-27.136c-3.757,0-6.782-3.033-6.782-6.782l0,0
		c0-3.757,3.033-6.782,6.782-6.782h27.136C365.355,227.82,368.388,230.853,368.388,234.602L368.388,234.602z"/>
	<path style="fill:#B26328;" d="M432.38,234.602c0,3.757-3.048,6.782-6.782,6.782H398.47c-3.765,0-6.79-3.033-6.79-6.782l0,0
		c0-3.757,3.033-6.782,6.79-6.782h27.128C429.332,227.82,432.38,230.853,432.38,234.602L432.38,234.602z"/>
	<path style="fill:#B26328;" d="M496.356,234.602c0,3.757-3.041,6.782-6.782,6.782h-27.12c-3.757,0-6.79-3.033-6.79-6.782l0,0
		c0-3.757,3.04-6.782,6.79-6.782h27.12C493.316,227.82,496.356,230.853,496.356,234.602L496.356,234.602z"/>
	<path style="fill:#B26328;" d="M80.463,271.837c0,3.757-3.04,6.782-6.79,6.782H46.545c-3.742,0-6.782-3.033-6.782-6.782l0,0
		c0-3.757,3.048-6.782,6.782-6.782h27.12C77.422,265.047,80.463,268.079,80.463,271.837L80.463,271.837z"/>
	<path style="fill:#B26328;" d="M144.447,271.837c0,3.757-3.04,6.782-6.79,6.782h-27.112c-3.749,0-6.79-3.033-6.79-6.782l0,0
		c0-3.757,3.048-6.782,6.79-6.782h27.112C141.407,265.047,144.447,268.079,144.447,271.837L144.447,271.837z"/>
	<path style="fill:#B26328;" d="M208.431,271.837c0,3.757-3.04,6.782-6.774,6.782h-27.136c-3.757,0-6.782-3.033-6.782-6.782l0,0
		c0-3.757,3.033-6.782,6.782-6.782h27.136C205.391,265.047,208.431,268.079,208.431,271.837L208.431,271.837z"/>
	<path style="fill:#B26328;" d="M272.408,271.837c0,3.757-3.033,6.782-6.766,6.782h-27.136c-3.757,0-6.782-3.033-6.782-6.782l0,0
		c0-3.757,3.033-6.782,6.782-6.782h27.136C269.375,265.047,272.408,268.079,272.408,271.837L272.408,271.837z"/>
	<path style="fill:#B26328;" d="M336.392,271.837c0,3.757-3.033,6.782-6.774,6.782H302.49c-3.757,0-6.798-3.033-6.798-6.782l0,0
		c0-3.757,3.048-6.782,6.798-6.782h27.128C333.359,265.047,336.392,268.079,336.392,271.837L336.392,271.837z"/>
	<path style="fill:#B26328;" d="M400.376,271.837c0,3.757-3.04,6.782-6.782,6.782h-27.12c-3.757,0-6.798-3.033-6.798-6.782l0,0
		c0-3.757,3.048-6.782,6.798-6.782h27.12C397.336,265.047,400.376,268.079,400.376,271.837L400.376,271.837z"/>
	<path style="fill:#B26328;" d="M464.36,271.837c0,3.757-3.041,6.782-6.782,6.782h-27.12c-3.757,0-6.79-3.033-6.79-6.782l0,0
		c0-3.757,3.04-6.782,6.79-6.782h27.12C461.32,265.047,464.36,268.079,464.36,271.837L464.36,271.837z"/>
	<path style="fill:#B26328;" d="M112.451,309.047c0,3.757-3.033,6.798-6.782,6.798h-27.12c-3.757,0-6.798-3.048-6.798-6.798l0,0
		c0-3.742,3.048-6.766,6.798-6.766h27.12C109.426,302.281,112.451,305.313,112.451,309.047L112.451,309.047z"/>
	<path style="fill:#B26328;" d="M176.435,309.047c0,3.757-3.04,6.798-6.782,6.798h-27.128c-3.757,0-6.782-3.048-6.782-6.798l0,0
		c0-3.742,3.033-6.766,6.782-6.766h27.128C173.403,302.281,176.435,305.313,176.435,309.047L176.435,309.047z"/>
	<path style="fill:#B26328;" d="M240.412,309.047c0,3.757-3.033,6.798-6.766,6.798h-27.136c-3.749,0-6.774-3.048-6.774-6.798l0,0
		c0-3.742,3.033-6.766,6.774-6.766h27.136C237.379,302.281,240.412,305.313,240.412,309.047L240.412,309.047z"/>
	<path style="fill:#B26328;" d="M304.396,309.047c0,3.757-3.033,6.798-6.766,6.798h-27.136c-3.749,0-6.774-3.048-6.774-6.798l0,0
		c0-3.742,3.033-6.766,6.774-6.766h27.136C301.363,302.281,304.396,305.313,304.396,309.047L304.396,309.047z"/>
	<path style="fill:#B26328;" d="M368.388,309.047c0,3.757-3.033,6.798-6.774,6.798h-27.136c-3.757,0-6.782-3.048-6.782-6.798l0,0
		c0-3.742,3.033-6.766,6.782-6.766h27.136C365.355,302.281,368.388,305.313,368.388,309.047L368.388,309.047z"/>
	<path style="fill:#B26328;" d="M432.38,309.047c0,3.757-3.048,6.798-6.782,6.798H398.47c-3.765,0-6.79-3.048-6.79-6.798l0,0
		c0-3.742,3.033-6.766,6.79-6.766h27.128C429.332,302.281,432.38,305.313,432.38,309.047L432.38,309.047z"/>
	<path style="fill:#B26328;" d="M144.447,346.281c0,3.757-3.04,6.782-6.79,6.782h-27.112c-3.749,0-6.79-3.033-6.79-6.782l0,0
		c0-3.742,3.048-6.782,6.79-6.782h27.112C141.407,339.499,144.447,342.54,144.447,346.281L144.447,346.281z"/>
	<path style="fill:#B26328;" d="M208.431,346.281c0,3.757-3.04,6.782-6.774,6.782h-27.136c-3.757,0-6.782-3.033-6.782-6.782l0,0
		c0-3.742,3.033-6.782,6.782-6.782h27.136C205.391,339.499,208.431,342.54,208.431,346.281L208.431,346.281z"/>
	<path style="fill:#B26328;" d="M272.408,346.281c0,3.757-3.033,6.782-6.766,6.782h-27.136c-3.757,0-6.782-3.033-6.782-6.782l0,0
		c0-3.742,3.033-6.782,6.782-6.782h27.136C269.375,339.499,272.408,342.54,272.408,346.281L272.408,346.281z"/>
	<path style="fill:#B26328;" d="M336.392,346.281c0,3.757-3.033,6.782-6.774,6.782H302.49c-3.757,0-6.798-3.033-6.798-6.782l0,0
		c0-3.742,3.048-6.782,6.798-6.782h27.128C333.359,339.499,336.392,342.54,336.392,346.281L336.392,346.281z"/>
	<path style="fill:#B26328;" d="M400.376,346.281c0,3.757-3.04,6.782-6.782,6.782h-27.12c-3.757,0-6.798-3.033-6.798-6.782l0,0
		c0-3.742,3.048-6.782,6.798-6.782h27.12C397.336,339.499,400.376,342.54,400.376,346.281L400.376,346.281z"/>
	<path style="fill:#B26328;" d="M176.435,383.516c0,3.757-3.04,6.782-6.782,6.782h-27.128c-3.757,0-6.782-3.033-6.782-6.782l0,0
		c0-3.757,3.033-6.782,6.782-6.782h27.128C173.403,376.726,176.435,379.758,176.435,383.516L176.435,383.516z"/>
	<path style="fill:#B26328;" d="M240.412,383.516c0,3.757-3.033,6.782-6.766,6.782h-27.136c-3.749,0-6.774-3.033-6.774-6.782l0,0
		c0-3.757,3.033-6.782,6.774-6.782h27.136C237.379,376.726,240.412,379.758,240.412,383.516L240.412,383.516z"/>
	<path style="fill:#B26328;" d="M304.396,383.516c0,3.757-3.033,6.782-6.766,6.782h-27.136c-3.749,0-6.774-3.033-6.774-6.782l0,0
		c0-3.757,3.033-6.782,6.774-6.782h27.136C301.363,376.726,304.396,379.758,304.396,383.516L304.396,383.516z"/>
	<path style="fill:#B26328;" d="M368.388,383.516c0,3.757-3.033,6.782-6.774,6.782h-27.136c-3.757,0-6.782-3.033-6.782-6.782l0,0
		c0-3.757,3.033-6.782,6.782-6.782h27.136C365.355,376.726,368.388,379.758,368.388,383.516L368.388,383.516z"/>
	<path style="fill:#B26328;" d="M208.431,420.742c0,3.757-3.04,6.782-6.774,6.782h-27.136c-3.757,0-6.782-3.033-6.782-6.782l0,0
		c0-3.757,3.033-6.782,6.782-6.782h27.136C205.391,413.96,208.431,416.992,208.431,420.742L208.431,420.742z"/>
	<path style="fill:#B26328;" d="M272.408,420.742c0,3.757-3.033,6.782-6.766,6.782h-27.136c-3.757,0-6.782-3.033-6.782-6.782l0,0
		c0-3.757,3.033-6.782,6.782-6.782h27.136C269.375,413.96,272.408,416.992,272.408,420.742L272.408,420.742z"/>
	<path style="fill:#B26328;" d="M336.392,420.742c0,3.757-3.033,6.782-6.774,6.782H302.49c-3.757,0-6.798-3.033-6.798-6.782l0,0
		c0-3.757,3.048-6.782,6.798-6.782h27.128C333.359,413.96,336.392,416.992,336.392,420.742L336.392,420.742z"/>
	<path style="fill:#B26328;" d="M240.412,457.96c0,3.757-3.033,6.798-6.766,6.798h-27.136c-3.749,0-6.774-3.048-6.774-6.798l0,0
		c0-3.742,3.033-6.766,6.774-6.766h27.136C237.379,451.186,240.412,454.219,240.412,457.96L240.412,457.96z"/>
	<path style="fill:#B26328;" d="M304.396,457.96c0,3.757-3.033,6.798-6.766,6.798h-27.136c-3.749,0-6.774-3.048-6.774-6.798l0,0
		c0-3.742,3.033-6.766,6.774-6.766h27.136C301.363,451.186,304.396,454.219,304.396,457.96L304.396,457.96z"/>
</g>
<path style="fill:#C47337;" d="M305.64,258.525c0,11.634-9.444,21.079-21.079,21.079h-65c-11.634,0-21.079-9.444-21.079-21.079
	v-77.288c0-11.65,9.444-21.079,21.079-21.079h65c11.634,0,21.079,9.429,21.079,21.079V258.525z"/>
<path style="fill:#D17F47;" d="M284.562,160.158h-65c-11.634,0-21.079,9.429-21.079,21.079v47.813
	c0,11.65,9.444,21.079,21.079,21.079h65c11.634,0,21.079-9.429,21.079-21.079v-47.813
	C305.64,169.586,296.196,160.158,284.562,160.158z"/>
<circle style="fill:#C6BA95;" cx="252.054" cy="202.047" r="24.434"/>
<path style="fill:#B2A47D;" d="M234.795,184.773c9.523-9.555,25.017-9.555,34.54,0c9.547,9.523,9.547,25.017,0,34.54"/>
<g>
	<path style="fill:#D17F47;" d="M29.097,171.792c0,0.859-0.693,1.552-1.544,1.552l0,0c-0.851,0-1.536-0.693-1.536-1.552v-27.924
		c0-0.843,0.685-1.536,1.536-1.536l0,0c0.851,0,1.544,0.693,1.544,1.536V171.792z"/>
	<path style="fill:#D17F47;" d="M41.519,171.792c0,0.859-0.693,1.552-1.552,1.552l0,0c-0.843,0-1.552-0.693-1.552-1.552v-27.924
		c0-0.843,0.709-1.536,1.552-1.536l0,0c0.859,0,1.552,0.693,1.552,1.536V171.792z"/>
	<path style="fill:#D17F47;" d="M53.918,171.792c0,0.859-0.693,1.552-1.544,1.552l0,0c-0.851,0-1.544-0.693-1.544-1.552v-27.924
		c0-0.843,0.693-1.536,1.544-1.536l0,0c0.851,0,1.544,0.693,1.544,1.536V171.792z"/>
	<path style="fill:#D17F47;" d="M66.332,171.792c0,0.859-0.693,1.552-1.536,1.552l0,0c-0.859,0-1.568-0.693-1.568-1.552v-27.924
		c0-0.843,0.709-1.536,1.568-1.536l0,0c0.843,0,1.536,0.693,1.536,1.536V171.792z"/>
	<path style="fill:#D17F47;" d="M78.714,171.792c0,0.859-0.693,1.552-1.536,1.552l0,0c-0.859,0-1.536-0.693-1.536-1.552v-27.924
		c0-0.843,0.677-1.536,1.536-1.536l0,0c0.843,0,1.536,0.693,1.536,1.536V171.792z"/>
	<path style="fill:#D17F47;" d="M91.128,171.792c0,0.859-0.693,1.552-1.536,1.552l0,0c-0.843,0-1.568-0.693-1.568-1.552v-27.924
		c0-0.843,0.725-1.536,1.568-1.536l0,0c0.843,0,1.536,0.693,1.536,1.536V171.792z"/>
	<path style="fill:#D17F47;" d="M103.534,171.792c0,0.859-0.677,1.552-1.536,1.552l0,0c-0.859,0-1.552-0.693-1.552-1.552v-27.924
		c0-0.843,0.693-1.536,1.552-1.536l0,0c0.859,0,1.536,0.693,1.536,1.536V171.792z"/>
	<path style="fill:#D17F47;" d="M115.948,171.792c0,0.859-0.693,1.552-1.536,1.552l0,0c-0.851,0-1.568-0.693-1.568-1.552v-27.924
		c0-0.843,0.717-1.536,1.568-1.536l0,0c0.843,0,1.536,0.693,1.536,1.536V171.792z"/>
	<path style="fill:#D17F47;" d="M128.347,171.792c0,0.859-0.693,1.552-1.544,1.552l0,0c-0.851,0-1.544-0.693-1.544-1.552v-27.924
		c0-0.843,0.693-1.536,1.544-1.536l0,0c0.851,0,1.544,0.693,1.544,1.536V171.792z"/>
	<path style="fill:#D17F47;" d="M140.761,171.792c0,0.859-0.693,1.552-1.544,1.552l0,0c-0.851,0-1.56-0.693-1.56-1.552v-27.924
		c0-0.843,0.709-1.536,1.56-1.536l0,0c0.851,0,1.544,0.693,1.544,1.536V171.792z"/>
	<path style="fill:#D17F47;" d="M153.159,171.792c0,0.859-0.693,1.552-1.544,1.552l0,0c-0.851,0-1.544-0.693-1.544-1.552v-27.924
		c0-0.843,0.693-1.536,1.544-1.536l0,0c0.851,0,1.544,0.693,1.544,1.536V171.792z"/>
	<path style="fill:#D17F47;" d="M165.581,171.792c0,0.859-0.693,1.552-1.544,1.552l0,0c-0.851,0-1.56-0.693-1.56-1.552v-27.924
		c0-0.843,0.709-1.536,1.56-1.536l0,0c0.851,0,1.544,0.693,1.544,1.536V171.792z"/>
	<path style="fill:#D17F47;" d="M177.971,171.792c0,0.859-0.685,1.552-1.536,1.552l0,0c-0.859,0-1.544-0.693-1.544-1.552v-27.924
		c0-0.843,0.685-1.536,1.544-1.536l0,0c0.851,0,1.536,0.693,1.536,1.536V171.792z"/>
	<path style="fill:#D17F47;" d="M329.24,171.792c0,0.859-0.693,1.552-1.536,1.552l0,0c-0.859,0-1.552-0.693-1.552-1.552v-27.924
		c0-0.843,0.693-1.536,1.552-1.536l0,0c0.843,0,1.536,0.693,1.536,1.536V171.792z"/>
	<path style="fill:#D17F47;" d="M341.654,171.792c0,0.859-0.693,1.552-1.544,1.552l0,0c-0.851,0-1.56-0.693-1.56-1.552v-27.924
		c0-0.843,0.709-1.536,1.56-1.536l0,0c0.851,0,1.544,0.693,1.544,1.536V171.792z"/>
	<path style="fill:#D17F47;" d="M354.052,171.792c0,0.859-0.693,1.552-1.552,1.552l0,0c-0.843,0-1.536-0.693-1.536-1.552v-27.924
		c0-0.843,0.693-1.536,1.536-1.536l0,0c0.859,0,1.552,0.693,1.552,1.536V171.792z"/>
	<path style="fill:#D17F47;" d="M366.466,171.792c0,0.859-0.693,1.552-1.544,1.552l0,0c-0.851,0-1.56-0.693-1.56-1.552v-27.924
		c0-0.843,0.709-1.536,1.56-1.536l0,0c0.851,0,1.544,0.693,1.544,1.536V171.792z"/>
	<path style="fill:#D17F47;" d="M378.864,171.792c0,0.859-0.685,1.552-1.544,1.552l0,0c-0.843,0-1.536-0.693-1.536-1.552v-27.924
		c0-0.843,0.693-1.536,1.536-1.536l0,0c0.859,0,1.544,0.693,1.544,1.536V171.792z"/>
	<path style="fill:#D17F47;" d="M391.278,171.792c0,0.859-0.685,1.552-1.536,1.552l0,0c-0.859,0-1.568-0.693-1.568-1.552v-27.924
		c0-0.843,0.709-1.536,1.568-1.536l0,0c0.851,0,1.536,0.693,1.536,1.536V171.792z"/>
	<path style="fill:#D17F47;" d="M403.677,171.792c0,0.859-0.693,1.552-1.544,1.552l0,0c-0.851,0-1.544-0.693-1.544-1.552v-27.924
		c0-0.843,0.693-1.536,1.544-1.536l0,0c0.851,0,1.544,0.693,1.544,1.536V171.792z"/>
	<path style="fill:#D17F47;" d="M416.091,171.792c0,0.859-0.693,1.552-1.544,1.552l0,0c-0.851,0-1.56-0.693-1.56-1.552v-27.924
		c0-0.843,0.709-1.536,1.56-1.536l0,0c0.851,0,1.544,0.693,1.544,1.536V171.792z"/>
	<path style="fill:#D17F47;" d="M428.489,171.792c0,0.859-0.693,1.552-1.544,1.552l0,0c-0.851,0-1.544-0.693-1.544-1.552v-27.924
		c0-0.843,0.693-1.536,1.544-1.536l0,0c0.851,0,1.544,0.693,1.544,1.536V171.792z"/>
	<path style="fill:#D17F47;" d="M440.903,171.792c0,0.859-0.685,1.552-1.536,1.552l0,0c-0.851,0-1.568-0.693-1.568-1.552v-27.924
		c0-0.843,0.717-1.536,1.568-1.536l0,0c0.851,0,1.536,0.693,1.536,1.536V171.792z"/>
	<path style="fill:#D17F47;" d="M453.301,171.792c0,0.859-0.693,1.552-1.544,1.552l0,0c-0.851,0-1.544-0.693-1.544-1.552v-27.924
		c0-0.843,0.693-1.536,1.544-1.536l0,0c0.851,0,1.544,0.693,1.544,1.536V171.792z"/>
	<path style="fill:#D17F47;" d="M465.715,171.792c0,0.859-0.693,1.552-1.552,1.552l0,0c-0.843,0-1.552-0.693-1.552-1.552v-27.924
		c0-0.843,0.709-1.536,1.552-1.536l0,0c0.859,0,1.552,0.693,1.552,1.536V171.792z"/>
	<path style="fill:#D17F47;" d="M478.113,171.792c0,0.859-0.693,1.552-1.544,1.552l0,0c-0.851,0-1.544-0.693-1.544-1.552v-27.924
		c0-0.843,0.693-1.536,1.544-1.536l0,0c0.851,0,1.544,0.693,1.544,1.536V171.792z"/>
</g>
<g>
</g>
<g>
</g>
<g>
</g>
<g>
</g>
<g>
</g>
<g>
</g>
<g>
</g>
<g>
</g>
<g>
</g>
<g>
</g>
<g>
</g>
<g>
</g>
<g>
</g>
<g>
</g>
<g>
</g>
</svg>
