<?xml version="1.0" encoding="iso-8859-1"?>
<!-- Generator: Adobe Illustrator 19.0.0, SVG Export Plug-In . SVG Version: 6.00 Build 0)  -->
<svg version="1.1" id="Layer_1" xmlns="http://www.w3.org/2000/svg" xmlns:xlink="http://www.w3.org/1999/xlink" x="0px" y="0px"
	 viewBox="0 0 512 512" style="enable-background:new 0 0 512 512;" xml:space="preserve">
<g>
	<path style="fill:#9D6227;" d="M255.999,5.444c-128.3,0-232.309,104.584-232.309,233.598c0,90.934,47.481,167.447,122.899,206.039
		l4.026,2.178c0,0,35.228,62.057,105.383,62.057s105.382-62.057,105.382-62.057l4.027-2.178
		c75.418-38.592,122.899-115.105,122.899-206.039C488.308,110.028,384.299,5.444,255.999,5.444z"/>
	<path style="fill:#915A26;" d="M475.533,162.46c0,0,18.56,165.715-143.608,249.695c0,0-8.673,63.709-75.925,60.488
		c-67.252,3.221-75.925-60.488-75.925-60.488C17.907,328.175,36.467,162.46,36.467,162.46c-8.281,23.99-12.775,49.758-12.775,76.582
		c0,90.934,47.481,167.447,122.899,206.039l4.026,2.178c0,0,35.228,62.057,105.383,62.057s105.382-62.057,105.382-62.057
		l4.027-2.178c75.418-38.592,122.899-115.105,122.899-206.039C488.308,212.217,483.814,186.45,475.533,162.46z"/>
	<path style="fill:#F2B643;" d="M326.775,291.176C318.403,224.897,256,223.184,256,223.184s-62.403,1.713-70.775,67.992
		c0,0-35.088,23.166-35.088,62.42c0,39.25,29.938,58.559,29.938,58.559s5.77,81.732,75.925,81.732s75.925-81.732,75.925-81.732
		s29.938-19.309,29.938-58.559C361.863,314.342,326.775,291.176,326.775,291.176z"/>
	<path style="fill:#D89932;" d="M326.775,291.176C318.403,224.897,256,223.184,256,223.184v270.703
		c70.155,0,75.925-81.732,75.925-81.732s29.938-19.309,29.938-58.559C361.863,314.342,326.775,291.176,326.775,291.176z"/>
	<path style="fill:#9D6227;" d="M18.223,18.633c-48.7,46.793,15.625,151.898,15.625,151.898l93.829-126.229
		C127.677,44.303,67.454-28.665,18.223,18.633z"/>
	<path style="fill:#915A26;" d="M42.726,53.036c-30.189,29.014,9.682,94.168,9.682,94.168l58.175-78.248
		C110.582,68.956,73.246,23.715,42.726,53.036z"/>
	<path style="fill:#9D6227;" d="M493.776,18.633c48.7,46.793-15.625,151.898-15.625,151.898L384.322,44.302
		C384.322,44.303,444.545-28.665,493.776,18.633z"/>
	<path style="fill:#915A26;" d="M469.273,53.036c30.188,29.014-9.682,94.168-9.682,94.168l-58.175-78.248
		C401.416,68.956,438.753,23.715,469.273,53.036z"/>
	<path style="fill:#253744;" d="M180.444,233.893c-13.068,7.201-26.312,8.25-29.576,2.33c-3.258-5.914,4.704-16.547,17.775-23.748
		c13.068-7.203,26.312-8.25,29.568-2.34C201.477,216.057,193.512,226.69,180.444,233.893z"/>
	<path style="fill:#253744;" d="M331.555,233.893c13.068,7.201,26.311,8.25,29.576,2.33c3.258-5.914-4.704-16.547-17.775-23.748
		c-13.068-7.203-26.312-8.25-29.569-2.34C310.522,216.057,318.487,226.69,331.555,233.893z"/>
	<path style="fill:#2D404E;" d="M295.908,309.192c0-14.744-17.863-26.695-39.908-26.695c-22.042,0-39.908,11.951-39.908,26.695
		s17.866,26.697,39.908,26.697C278.044,335.889,295.908,323.936,295.908,309.192z"/>
	<path style="fill:#253744;" d="M247.003,311.762c0,5.688-4.608,10.295-10.294,10.295c-5.693,0-10.302-4.607-10.302-10.295
		c0-5.693,4.608-10.301,10.302-10.301C242.395,301.461,247.003,306.069,247.003,311.762z"/>
	<path style="fill:#253744;" d="M264.996,311.762c0,5.688,4.608,10.295,10.294,10.295c5.693,0,10.302-4.607,10.302-10.295
		c0-5.693-4.608-10.301-10.302-10.301C269.604,301.461,264.996,306.069,264.996,311.762z"/>
	<path style="fill:#B9483E;" d="M310.299,438.532c0,17.061-13.832,30.889-30.892,30.889h-46.823
		c-17.058,0-30.89-13.828-30.89-30.889v-40.541c0-17.059,13.832-30.889,30.89-30.889h46.823c17.06,0,30.892,13.83,30.892,30.889
		V438.532z"/>
	<path style="fill:#D1D5D5;" d="M218.853,409.575c4.168,0,7.555-15.416,7.555-34.436c0-2.531-0.068-4.99-0.18-7.367
		c-5.731,1.199-10.845,4.021-14.925,7.92C211.364,394.446,214.72,409.575,218.853,409.575z"/>
	<path style="fill:#E2E5E7;" d="M235.738,389.303c3.197,0,5.792-9.795,5.792-21.885c0-0.107-0.008-0.211-0.008-0.316h-8.938
		c-0.903,0-1.756,0.189-2.639,0.264c0,0.021,0,0.037,0,0.053C229.946,379.508,232.539,389.303,235.738,389.303z"/>
	<path style="fill:#E2E5E7;" d="M248.125,385.76c2.469,0,4.46-8.244,4.632-18.658h-9.268
		C243.662,377.516,245.663,385.76,248.125,385.76z"/>
	<path style="fill:#E2E5E7;" d="M293.146,409.575c-4.168,0-7.555-15.416-7.555-34.436c0-2.531,0.068-4.99,0.18-7.367
		c5.731,1.199,10.845,4.021,14.925,7.92C300.635,394.446,297.279,409.575,293.146,409.575z"/>
	<path style="fill:#E2E5E7;" d="M276.261,389.303c-3.197,0-5.792-9.795-5.792-21.885c0-0.107,0.008-0.211,0.008-0.316h8.938
		c0.903,0,1.756,0.189,2.639,0.264c0,0.021,0,0.037,0,0.053C282.053,379.508,279.46,389.303,276.261,389.303z"/>
	<path style="fill:#E2E5E7;" d="M263.873,385.76c-2.468,0-4.459-8.244-4.631-18.658h9.268
		C268.337,377.516,266.336,385.76,263.873,385.76z"/>
	<path style="fill:#DF584C;" d="M255.997,421.01c-35.57,0-42.837,28.053-44.316,40.217c5.504,5.07,12.83,8.193,20.904,8.193h46.823
		c8.075,0,15.405-3.125,20.911-8.199C298.836,449.059,291.563,421.01,255.997,421.01z"/>
	<path style="fill:#E2E5E7;" d="M224.402,450.116c-3.037,0-5.511,6.488-5.511,14.48c0,0.52,0.037,1.018,0.058,1.521
		c3.273,1.621,6.856,2.633,10.658,3.002c0.18-1.432,0.301-2.934,0.301-4.523C229.908,456.604,227.442,450.116,224.402,450.116z"/>
	<path style="fill:#E2E5E7;" d="M287.597,450.116c3.037,0,5.511,6.488,5.511,14.48c0,0.52-0.038,1.018-0.058,1.521
		c-3.273,1.621-6.857,2.633-10.658,3.002c-0.18-1.432-0.301-2.934-0.301-4.523C282.091,456.604,284.557,450.116,287.597,450.116z"/>
	<path style="fill:#D1D5D5;" d="M214.563,372.969c-1.148,0.834-2.235,1.742-3.26,2.723c0.061,18.754,3.417,33.883,7.55,33.883
		c0.384,0,0.759-0.172,1.128-0.424c-3.272-3.9-3.89-8.564-3.89-8.564C214.975,394.635,214.655,380.874,214.563,372.969z"/>
	<path style="fill:#D1D5D5;" d="M297.436,372.969c1.147,0.834,2.235,1.742,3.26,2.723c-0.061,18.754-3.417,33.883-7.55,33.883
		c-0.385,0-0.759-0.172-1.128-0.424c3.272-3.9,3.89-8.564,3.89-8.564C297.024,394.635,297.344,380.874,297.436,372.969z"/>
	<path style="fill:#E2E5E7;" d="M226.408,375.139c0-2.531-0.068-4.99-0.18-7.367c-4.295,0.898-8.24,2.709-11.665,5.197
		c0.092,7.904,0.412,21.666,1.528,27.617c0,0,0.617,4.664,3.89,8.564C223.613,406.665,226.408,392.407,226.408,375.139z"/>
	<path style="fill:#D1D5D5;" d="M235.303,367.102h-2.719c-0.903,0-1.756,0.189-2.639,0.264c0,0.021,0,0.037,0,0.053
		c0,12.09,2.593,21.885,5.792,21.885c0.321,0,0.633-0.123,0.938-0.314C233.937,382.024,234.688,372.014,235.303,367.102z"/>
	<path style="fill:#D1D5D5;" d="M276.696,367.102h2.719c0.903,0,1.756,0.189,2.639,0.264c0,0.021,0,0.037,0,0.053
		c0,12.09-2.593,21.885-5.792,21.885c-0.321,0-0.633-0.123-0.938-0.314C278.062,382.024,277.311,372.014,276.696,367.102z"/>
	<path style="fill:#D1D5D5;" d="M243.49,367.102c0.172,10.412,2.17,18.652,4.634,18.658v-18.658H243.49z"/>
	<path style="fill:#D1D5D5;" d="M268.509,367.102c-0.172,10.412-2.171,18.652-4.634,18.658v-18.658H268.509z"/>
	<path style="fill:#D1D5D5;" d="M224.779,450.167c-0.126-0.023-0.25-0.051-0.377-0.051c-3.037,0-5.511,6.488-5.511,14.48
		c0,0.52,0.037,1.018,0.058,1.521c1.067,0.529,2.178,0.969,3.309,1.365C221.584,458.407,223.344,452.981,224.779,450.167z"/>
	<path style="fill:#D1D5D5;" d="M287.22,450.167c0.126-0.023,0.25-0.051,0.377-0.051c3.037,0,5.511,6.488,5.511,14.48
		c0,0.52-0.038,1.018-0.058,1.521c-1.067,0.529-2.178,0.969-3.309,1.365C290.415,458.407,288.654,452.981,287.22,450.167z"/>
</g>
<g>
</g>
<g>
</g>
<g>
</g>
<g>
</g>
<g>
</g>
<g>
</g>
<g>
</g>
<g>
</g>
<g>
</g>
<g>
</g>
<g>
</g>
<g>
</g>
<g>
</g>
<g>
</g>
<g>
</g>
</svg>
