<?xml version="1.0" encoding="iso-8859-1"?>
<!-- Generator: Adobe Illustrator 19.0.0, SVG Export Plug-In . SVG Version: 6.00 Build 0)  -->
<svg version="1.1" id="Layer_1" xmlns="http://www.w3.org/2000/svg" xmlns:xlink="http://www.w3.org/1999/xlink" x="0px" y="0px"
	 viewBox="0 0 512.002 512.002" style="enable-background:new 0 0 512.002 512.002;" xml:space="preserve">
<path style="fill:#333E48;" d="M412.077,418.801c-50.558,0-91.691-41.133-91.691-91.692c0-50.56,41.133-91.692,91.691-91.692
	c50.559,0,91.692,41.132,91.692,91.692C503.769,377.668,462.637,418.801,412.077,418.801z M412.077,264.406
	c-34.573,0-62.702,28.129-62.702,62.704s28.128,62.702,62.702,62.702c34.576,0,62.703-28.127,62.703-62.702
	S446.652,264.406,412.077,264.406z"/>
<path style="opacity:0.4;fill:#222222;enable-background:new    ;" d="M412.077,264.406v-28.988
	c-50.558,0-91.691,41.132-91.691,91.692c0,50.558,41.133,91.692,91.691,91.692v-28.991c-34.573,0-62.702-28.127-62.702-62.702
	S377.504,264.406,412.077,264.406z"/>
<path style="fill:#333E48;" d="M99.923,418.801c-50.559,0-91.692-41.133-91.692-91.692c0-50.56,41.132-91.692,91.692-91.692
	c50.557,0,91.691,41.132,91.691,91.692C191.614,377.668,150.48,418.801,99.923,418.801z M99.923,264.406
	c-34.576,0-62.703,28.129-62.703,62.704s28.127,62.702,62.703,62.702c34.573,0,62.702-28.127,62.702-62.702
	S134.497,264.406,99.923,264.406z"/>
<g>
	<path style="opacity:0.4;fill:#222222;enable-background:new    ;" d="M99.923,264.406v-28.988
		c-50.559,0-91.692,41.132-91.692,91.692c0,50.558,41.132,91.692,91.692,91.692v-28.991c-34.576,0-62.703-28.127-62.703-62.702
		S65.348,264.406,99.923,264.406z"/>
	<path style="opacity:0.4;fill:#222222;enable-background:new    ;" d="M142.406,245.893l-15.058,24.843
		c6.616,3.232,12.575,7.603,17.638,12.841l15.362-25.343C154.899,253.446,148.882,249.294,142.406,245.893z M162.57,329.285
		c-0.261,7.594-1.874,14.852-4.615,21.533l30.093,1.545c1.983-6.902,3.178-14.13,3.472-21.589L162.57,329.285z"/>
</g>
<path style="fill:#333E48;" d="M202.415,142.722c0.369-9.124-6.73-16.822-15.855-17.189l-52.969-2.139
	c-13.466-0.544-24.82,9.931-25.365,23.396c-0.543,13.464,9.932,24.819,23.397,25.364c2.631,0.105,5.18-0.221,7.586-0.898
	l0.001,0.009c7.608-2.069,41.732-10.451,50.936-13.226c0.057-0.02,0.111-0.036,0.165-0.054c0.462-0.139,0.877-0.268,1.193-0.378
	l-0.001-0.004C197.639,155.386,202.136,149.643,202.415,142.722z"/>
<path style="opacity:0.4;fill:#222222;enable-background:new    ;" d="M202.415,142.722h-93.656
	c-0.279,1.32-0.477,2.676-0.532,4.068c-0.543,13.464,9.932,24.819,23.397,25.364c2.631,0.105,5.18-0.221,7.586-0.898l0.001,0.009
	c7.608-2.069,41.732-10.451,50.936-13.226c0.057-0.02,0.111-0.036,0.165-0.054c0.462-0.139,0.877-0.268,1.193-0.378l-0.001-0.004
	C197.639,155.386,202.136,149.643,202.415,142.722z"/>
<path style="fill:#333E48;" d="M347.829,112.672c0-10.758-8.717-19.476-19.473-19.476c-10.755,0-19.47,8.717-19.47,19.476
	c0,10.754,8.715,19.469,19.47,19.469S347.829,123.427,347.829,112.672z"/>
<circle style="fill:#D1D3D3;" cx="328.351" cy="112.676" r="7.072"/>
<path style="opacity:0.4;fill:#222222;enable-background:new    ;" d="M328.354,93.197c-10.755,0-19.47,8.717-19.47,19.476
	c0,10.754,8.715,19.469,19.47,19.469V93.197z"/>
<path style="fill:#FF5959;" d="M368.744,189.585c-1.905-3.922-5.97-6.328-10.332-6.106l-184.241,9.371
	c-0.072,0.004-0.142,0.018-0.215,0.027c-0.181,0.011-0.358,0.036-0.537,0.056c-0.296,0.038-0.592,0.079-0.885,0.142
	c-0.159,0.032-0.316,0.072-0.473,0.112c-0.306,0.079-0.61,0.165-0.907,0.27c-0.14,0.049-0.275,0.101-0.413,0.157
	c-0.304,0.117-0.604,0.251-0.894,0.401c-0.127,0.063-0.252,0.126-0.376,0.195c-0.288,0.159-0.564,0.33-0.836,0.517
	c-0.12,0.079-0.239,0.159-0.357,0.243c-0.258,0.195-0.505,0.398-0.747,0.616c-0.114,0.101-0.23,0.195-0.34,0.302
	c-0.232,0.221-0.446,0.461-0.657,0.703c-0.102,0.117-0.209,0.225-0.305,0.345c-0.222,0.279-0.423,0.576-0.618,0.875
	c-0.058,0.094-0.127,0.173-0.184,0.266L90.627,321.474c-1.984,3.273-2.102,7.343-0.309,10.723c1.792,3.382,5.226,5.573,9.049,5.768
	l136.973,7.041c0.187,0.009,0.374,0.013,0.56,0.013c0.424,0,0.843-0.027,1.259-0.077c0.14-0.018,0.275-0.045,0.413-0.066
	c0.275-0.041,0.55-0.09,0.821-0.155c0.158-0.036,0.313-0.083,0.47-0.128c0.246-0.069,0.487-0.144,0.729-0.232
	c0.159-0.056,0.313-0.117,0.47-0.184c0.232-0.094,0.46-0.2,0.686-0.313c0.149-0.072,0.297-0.148,0.441-0.229
	c0.227-0.126,0.447-0.268,0.666-0.409c0.128-0.086,0.262-0.165,0.39-0.259c0.237-0.169,0.461-0.353,0.684-0.544
	c0.099-0.081,0.2-0.156,0.294-0.243c0.303-0.277,0.592-0.567,0.865-0.879l0.025-0.03c0.003-0.004,0.008-0.009,0.012-0.013
	l122.032-139.777C370.023,198.196,370.648,193.51,368.744,189.585z M118.648,317.189l54.928-90.62l45.656,95.788L118.648,317.189z
	 M239.589,314.535l-35.787-75.089l106.041-5.378L239.589,314.535z"/>
<path style="fill:#FEDD3D;" d="M259.286,220.928c-4.362,0-8.002-3.427-8.215-7.833c-0.219-4.54,3.283-8.4,7.824-8.62l58.513-2.834
	c4.528-0.207,8.399,3.284,8.62,7.824c0.221,4.54-3.283,8.4-7.824,8.62l-58.513,2.834
	C259.555,220.925,259.42,220.928,259.286,220.928z"/>
<path style="opacity:0.3;fill:#222222;enable-background:new    ;" d="M239.589,189.52l-65.417,3.329
	c-0.072,0.004-0.142,0.018-0.215,0.027c-0.181,0.011-0.358,0.036-0.537,0.056c-0.296,0.038-0.592,0.079-0.885,0.142
	c-0.159,0.032-0.316,0.072-0.473,0.112c-0.306,0.079-0.61,0.165-0.907,0.27c-0.14,0.049-0.275,0.101-0.413,0.157
	c-0.304,0.117-0.604,0.251-0.894,0.401c-0.127,0.063-0.252,0.126-0.376,0.195c-0.288,0.159-0.564,0.33-0.836,0.517
	c-0.12,0.079-0.239,0.159-0.357,0.243c-0.258,0.195-0.505,0.398-0.747,0.616c-0.114,0.101-0.23,0.195-0.34,0.302
	c-0.232,0.221-0.446,0.461-0.657,0.703c-0.102,0.117-0.209,0.225-0.305,0.345c-0.222,0.279-0.423,0.576-0.618,0.875
	c-0.058,0.094-0.127,0.173-0.184,0.266l-74.801,123.4c-1.984,3.273-2.102,7.343-0.309,10.723c1.792,3.382,5.226,5.573,9.049,5.768
	l136.973,7.041c0.187,0.009,0.374,0.013,0.56,0.013c0.424,0,0.843-0.027,1.259-0.077c0.14-0.018,0.275-0.045,0.413-0.066
	c0.275-0.041,0.55-0.09,0.821-0.155c0.066-0.015,0.133-0.036,0.2-0.052v-30.135l-35.787-75.089l35.787-1.813V189.52H239.589z
	 M219.232,322.357l-100.583-5.168l54.928-90.62L219.232,322.357z"/>
<path style="fill:#A4A9AD;" d="M264.697,334.15c0-15.351-12.446-27.803-27.802-27.803c-15.354,0-27.802,12.452-27.802,27.803
	c0,15.354,12.449,27.801,27.802,27.801C252.252,361.952,264.697,349.505,264.697,334.15z"/>
<circle style="fill:#333E48;" cx="236.899" cy="334.156" r="14.837"/>
<path style="opacity:0.2;fill:#222222;enable-background:new    ;" d="M236.895,306.348c-15.354,0-27.802,12.452-27.802,27.803
	c0,15.354,12.449,27.801,27.802,27.801L236.895,306.348L236.895,306.348z"/>
<path style="fill:#1E252B;" d="M412.077,227.187c-8.377,0-16.514,1.041-24.293,2.993l-10.493-30.461
	c1.315-4.467,0.979-9.355-1.144-13.729c-1.181-2.431-2.839-4.519-4.816-6.201l-7.15-49.522c-0.009-0.057-0.024-0.111-0.033-0.167
	c-0.024-0.153-0.055-0.302-0.088-0.452c-0.027-0.121-0.056-0.241-0.088-0.359c-0.036-0.138-0.079-0.273-0.124-0.409
	c-0.04-0.122-0.08-0.245-0.125-0.364c-0.05-0.131-0.105-0.258-0.161-0.386c-0.052-0.115-0.102-0.233-0.159-0.345
	c-0.066-0.132-0.136-0.259-0.209-0.389c-0.057-0.101-0.113-0.202-0.173-0.3c-0.085-0.135-0.176-0.266-0.268-0.396
	c-0.06-0.085-0.117-0.169-0.18-0.251c-0.102-0.133-0.21-0.261-0.32-0.389c-0.065-0.075-0.127-0.149-0.194-0.221
	c-0.114-0.121-0.233-0.238-0.354-0.353c-0.075-0.07-0.15-0.143-0.228-0.211c-0.117-0.104-0.24-0.204-0.365-0.301
	c-0.092-0.072-0.185-0.144-0.282-0.213c-0.059-0.042-0.112-0.089-0.173-0.131l-5.788-3.925c0.773-2.543,1.192-5.238,1.192-8.03
	c0-15.278-12.428-27.707-27.704-27.707c-15.275,0-27.701,12.429-27.701,27.707c0,15.275,12.427,27.7,27.701,27.7
	c6.521,0,12.52-2.27,17.259-6.055l2.797,1.896l5.665,39.243l-178.974,9.103l-5.578-12.536c9.566-2.44,18.752-4.824,22.997-6.105
	c0.09-0.026,0.077-0.023,0.167-0.054c0.583-0.176,1.106-0.341,1.505-0.479c0.143-0.049,0.282-0.102,0.419-0.159
	c9.348-3.517,15.626-12.186,16.028-22.175c0.267-6.61-2.057-12.928-6.542-17.791c-4.485-4.864-10.596-7.689-17.206-7.954
	l-52.969-2.139c-18.132-0.737-33.194,13.285-33.922,31.289c-0.725,17.978,13.311,33.193,31.294,33.921
	c0.435,0.018,0.867,0.025,1.297,0.025c2.838,0,5.671-0.373,8.427-1.111c0.117-0.025,0.234-0.056,0.35-0.087
	c2.151-0.585,6.579-1.713,11.96-3.077l6.8,15.282c-0.112,0.126-0.219,0.246-0.339,0.393c-0.393,0.493-0.71,0.956-0.994,1.386
	c-0.132,0.184-0.262,0.38-0.408,0.616l-23.959,39.525c-11.021-4.077-22.595-6.146-34.507-6.146C44.826,227.187,0,272.011,0,327.109
	s44.826,99.923,99.923,99.923c23.688,0,46.673-8.47,64.725-23.85c15.958-13.598,27.216-31.844,32.233-51.961l8.537,0.438
	c6.164,11.038,17.96,18.523,31.478,18.523c1.223,0,2.432-0.063,3.624-0.182v10.979h41.673v-16.462h-16.305l-3.273-5.164
	c6.375-6.502,10.315-15.4,10.315-25.203c0-3.635-0.545-7.142-1.551-10.452l94.088-107.769l6.74,19.568
	c-35.31,15.427-60.05,50.683-60.05,91.613c0,55.097,44.825,99.923,99.922,99.923s99.923-44.826,99.923-99.923
	S467.175,227.187,412.077,227.187z M328.354,123.911c-6.197,0-11.239-5.042-11.239-11.238c0-6.2,5.042-11.245,11.239-11.245
	c6.199,0,11.242,5.045,11.242,11.245C339.598,118.869,334.554,123.911,328.354,123.911z M153.447,159.119
	c-6.974,1.765-13.039,3.3-16.021,4.1c-0.15,0.033-0.299,0.07-0.448,0.113c-1.644,0.463-3.356,0.664-5.023,0.597
	c-8.909-0.36-15.865-7.9-15.505-16.807c0.351-8.702,7.44-15.518,16.137-15.518c0.223,0,0.447,0.004,0.671,0.014l52.971,2.139
	c2.215,0.089,4.265,1.035,5.768,2.666c1.504,1.631,2.283,3.75,2.193,5.968c-0.136,3.383-2.289,6.317-5.486,7.473
	c-0.024,0.01-0.049,0.019-0.074,0.027c-0.206,0.067-0.46,0.144-0.782,0.241l-0.137,0.044
	C181.968,151.903,166.158,155.903,153.447,159.119z M153.972,390.651c-15.076,12.845-34.272,19.919-54.049,19.919
	c-46.021,0-83.461-37.44-83.461-83.461s37.44-83.461,83.461-83.461c8.864,0,17.498,1.376,25.781,4.079l-6.704,11.061
	c-6.184-1.731-12.573-2.614-19.076-2.614c-39.114,0-70.934,31.821-70.934,70.935c0,39.113,31.82,70.933,70.934,70.933
	c16.132,0,31.933-5.584,44.491-15.722c10.539-8.508,18.441-19.917,22.736-32.627l12.916,0.663
	C175.532,365.919,166.483,379.991,153.972,390.651z M83.044,336.051c3.131,5.912,9.224,9.795,15.899,10.135l50.918,2.617
	c-8.542,19.458-28.182,32.776-49.938,32.776c-30.035,0-54.472-24.436-54.472-54.471c0-30.037,24.436-54.473,54.472-54.473
	c3.42,0,6.799,0.316,10.112,0.939l-26.448,43.631C80.122,322.926,79.913,330.148,83.044,336.051z M198.852,313.068
	c-3.266-22.974-14.528-44.199-31.779-59.889l5.637-9.299l33.149,69.548L198.852,313.068z M151.648,278.628l6.696-11.045
	c12.322,12.104,20.609,27.718,23.689,44.621l-12.905-0.662C166.357,299.222,160.327,287.874,151.648,278.628z M151.854,310.653
	l-19.027-0.978l9.859-16.264C146.765,298.572,149.871,304.41,151.854,310.653z M253.34,344.722l-9.492-14.977
	c-2.433-3.841-7.521-4.979-11.359-2.546c-3.84,2.434-4.979,7.519-2.546,11.359l9.493,14.979c-0.834,0.11-1.677,0.184-2.541,0.184
	c-10.791,0-19.571-8.779-19.571-19.57c0-10.793,8.78-19.572,19.571-19.572s19.571,8.78,19.571,19.572
	C256.466,338.045,255.31,341.67,253.34,344.722z M216.54,247.042l74.341-3.771L242.6,298.572c-0.53-0.086-1.067-0.156-1.604-0.216
	L216.54,247.042z M360.952,196.068l-98.448,112.764c-1.238-1.252-2.565-2.414-3.973-3.476l57.511-65.873
	c2.173-2.489,2.647-6.035,1.205-9.007c-1.442-2.973-4.505-4.808-7.822-4.627l-106.041,5.378c-2.748,0.139-5.244,1.642-6.653,4.005
	c-1.409,2.362-1.544,5.273-0.361,7.756l27.45,57.594c-1.651,0.644-3.241,1.407-4.763,2.278l-38.051-79.833
	c-1.302-2.732-3.997-4.528-7.018-4.68c-3.041-0.17-5.881,1.365-7.451,3.954l-54.928,90.62c-1.501,2.477-1.59,5.561-0.234,8.12
	c1.355,2.559,3.957,4.218,6.85,4.367l82.925,4.26c-0.183,1.47-0.289,2.963-0.289,4.481c0,0.266,0.014,0.527,0.02,0.792
	l-101.098-5.196c-0.921-0.047-1.761-0.584-2.195-1.403c-0.432-0.814-0.403-1.812,0.076-2.602l74.654-123.161
	c0.075-0.106,0.148-0.215,0.219-0.327c0.025-0.04,0.049-0.077,0.069-0.109c0.048-0.055,0.093-0.105,0.131-0.149
	c0.047-0.054,0.093-0.109,0.119-0.138l0.159-0.138c0.038-0.034,0.078-0.069,0.117-0.102l0.038-0.024
	c0.037-0.025,0.076-0.052,0.114-0.077c0.054-0.036,0.108-0.07,0.167-0.103c0.005-0.002,0.01-0.005,0.015-0.008
	c0.033-0.014,0.067-0.023,0.101-0.038c0.064-0.029,0.122-0.065,0.185-0.093c0.045-0.02,0.104-0.041,0.136-0.055
	c0.076-0.024,0.155-0.044,0.239-0.066l0.076-0.021c0.074-0.013,0.148-0.022,0.223-0.031l0.147-0.018
	c0.109-0.008,0.215-0.019,0.323-0.031l183.929-9.355c1.077-0.056,2.049,0.529,2.511,1.48
	C361.803,194.133,361.651,195.268,360.952,196.068z M404.296,328.666c1.174,3.41,4.366,5.553,7.782,5.553
	c0.889,0,1.793-0.145,2.68-0.451c4.298-1.48,6.583-6.164,5.101-10.462l-17.167-49.843c3.051-0.532,6.184-0.826,9.386-0.826
	c30.035,0,54.472,24.436,54.472,54.473c0,30.034-24.436,54.471-54.472,54.471c-30.034,0-54.471-24.436-54.471-54.471
	c0-21.034,11.991-39.308,29.488-48.381L404.296,328.666z M412.077,410.57c-46.02,0-83.46-37.44-83.46-83.461
	c0-33.725,20.119-62.821,48.974-75.973l4.096,11.892c-23.948,11.404-40.543,35.838-40.543,64.081
	c0,39.113,31.82,70.933,70.933,70.933c39.114,0,70.934-31.82,70.934-70.933c0-39.114-31.82-70.935-70.934-70.935
	c-5.076,0-10.024,0.547-14.8,1.565l-4.1-11.906c6.078-1.414,12.399-2.185,18.902-2.185c46.021,0,83.461,37.44,83.461,83.461
	S458.098,410.57,412.077,410.57z"/>
<g>
</g>
<g>
</g>
<g>
</g>
<g>
</g>
<g>
</g>
<g>
</g>
<g>
</g>
<g>
</g>
<g>
</g>
<g>
</g>
<g>
</g>
<g>
</g>
<g>
</g>
<g>
</g>
<g>
</g>
</svg>
