<?xml version="1.0" encoding="iso-8859-1"?>
<!-- Generator: Adobe Illustrator 18.0.0, SVG Export Plug-In . SVG Version: 6.00 Build 0)  -->
<!DOCTYPE svg PUBLIC "-//W3C//DTD SVG 1.1//EN" "http://www.w3.org/Graphics/SVG/1.1/DTD/svg11.dtd">
<svg version="1.1" id="Capa_1" xmlns="http://www.w3.org/2000/svg" xmlns:xlink="http://www.w3.org/1999/xlink" x="0px" y="0px"
	 viewBox="0 0 87.755 87.755" style="enable-background:new 0 0 87.755 87.755;" xml:space="preserve">
<g>
	<path style="fill:#3EAD26;" d="M66.125,40.51c0,1.959-1.406,3.546-3.142,3.546H21.767c-1.735,0-3.141-1.587-3.141-3.546v-5.4
		c0-1.959,1.406-3.547,3.141-3.547h41.217c1.735,0,3.142,1.588,3.142,3.547V40.51z"/>
	<path style="fill:#484E4E;" d="M43.265,35.058c0,0-7.875,3.104-16.387-2.365l3.401,21.131c0,0,4.885-7.105,12.986-7.105
		c8.101,0,12.986,7.105,12.986,7.105l3.401-21.131C51.14,38.163,43.265,35.058,43.265,35.058z"/>
	<g>
		<circle style="fill:#FF7526;" cx="70.217" cy="45.293" r="17.538"/>
		<circle style="fill:#CFCEC7;" cx="70.217" cy="45.293" r="12.599"/>
		<path style="opacity:0.4;fill:#FFFFFF;" d="M70.217,32.693c6.958,0,12.599,5.642,12.599,12.6H57.618
			C57.618,38.335,63.259,32.693,70.217,32.693z"/>
	</g>
	<circle style="fill:#484E4E;" cx="43.265" cy="32.693" r="7.77"/>
	<circle style="fill:#FF7526;" cx="43.265" cy="32.693" r="3.142"/>
	<g>
		<circle style="fill:#FF7526;" cx="17.538" cy="45.293" r="17.538"/>
		<circle style="fill:#CFCEC7;" cx="17.538" cy="45.293" r="12.599"/>
		<path style="opacity:0.4;fill:#FFFFFF;" d="M17.538,32.693c-6.958,0-12.599,5.642-12.599,12.6h25.198
			C30.137,38.335,24.496,32.693,17.538,32.693z"/>
	</g>
</g>
<g>
</g>
<g>
</g>
<g>
</g>
<g>
</g>
<g>
</g>
<g>
</g>
<g>
</g>
<g>
</g>
<g>
</g>
<g>
</g>
<g>
</g>
<g>
</g>
<g>
</g>
<g>
</g>
<g>
</g>
</svg>
