<?xml version="1.0" encoding="iso-8859-1"?>
<!-- Generator: Adobe Illustrator 18.0.0, SVG Export Plug-In . SVG Version: 6.00 Build 0)  -->
<!DOCTYPE svg PUBLIC "-//W3C//DTD SVG 1.1//EN" "http://www.w3.org/Graphics/SVG/1.1/DTD/svg11.dtd">
<svg version="1.1" id="Capa_1" xmlns="http://www.w3.org/2000/svg" xmlns:xlink="http://www.w3.org/1999/xlink" x="0px" y="0px"
	 viewBox="0 0 385.982 385.982" style="enable-background:new 0 0 385.982 385.982;" xml:space="preserve">
<g>
	<g id="XMLID_34_">
		<g>
			<path style="fill:#E6E6E6;" d="M370.734,101.53v230.92c0,8.7-7.08,15.78-15.79,15.78H31.034c-8.7,0-15.78-7.08-15.78-15.78
				V101.53c0-8.7,7.08-15.78,15.78-15.78h323.91C363.654,85.75,370.734,92.83,370.734,101.53z M310.734,216.99
				c0-64.92-52.82-117.74-117.74-117.74c-64.93,0-117.75,52.82-117.75,117.74c0,64.93,52.82,117.75,117.75,117.75
				C257.914,334.74,310.734,281.92,310.734,216.99z"/>
			<path style="fill:#F2F2F2;" d="M192.994,114.25c56.65,0,102.74,46.09,102.74,102.74s-46.09,102.75-102.74,102.75
				c-56.66,0-102.75-46.1-102.75-102.75S136.334,114.25,192.994,114.25z M270.234,248.49v-63c0-4.14-3.35-7.5-7.5-7.5h-30.74v-30.75
				c0-4.14-3.36-7.5-7.5-7.5h-63c-4.14,0-7.5,3.36-7.5,7.5v30.75h-30.75c-4.14,0-7.5,3.36-7.5,7.5v63c0,4.14,3.36,7.5,7.5,7.5h30.75
				v30.75c0,4.14,3.36,7.5,7.5,7.5h63c4.14,0,7.5-3.36,7.5-7.5v-30.75h30.74C266.884,255.99,270.234,252.63,270.234,248.49z"/>
			<path style="fill:#EA6081;" d="M255.234,192.99v48h-30.74c-4.15,0-7.5,3.36-7.5,7.5v30.75h-48v-30.75c0-4.14-3.36-7.5-7.5-7.5
				h-30.75v-48h30.75c4.14,0,7.5-3.36,7.5-7.5v-30.75h48v30.75c0,4.14,3.35,7.5,7.5,7.5H255.234z"/>
			<path style="fill:#4D4D4D;" d="M385.734,101.53v230.92c0,16.97-13.81,30.78-30.79,30.78H31.034c-16.97,0-30.78-13.81-30.78-30.78
				V101.53c0-16.97,13.81-30.78,30.78-30.78h74.96V52.71c0-16.52,13.44-29.96,29.96-29.96h114.07c16.52,0,29.96,13.44,29.96,29.96
				v18.04h74.96C371.924,70.75,385.734,84.56,385.734,101.53z M370.734,332.45V101.53c0-8.7-7.08-15.78-15.79-15.78H31.034
				c-8.7,0-15.78,7.08-15.78,15.78v230.92c0,8.7,7.08,15.78,15.78,15.78h323.91C363.654,348.23,370.734,341.15,370.734,332.45z
				 M264.984,70.75V52.71c0-8.25-6.71-14.96-14.96-14.96h-114.07c-8.25,0-14.96,6.71-14.96,14.96v18.04H264.984z"/>
			<path style="fill:#4D4D4D;" d="M192.994,99.25c64.92,0,117.74,52.82,117.74,117.74c0,64.93-52.82,117.75-117.74,117.75
				c-64.93,0-117.75-52.82-117.75-117.75C75.244,152.07,128.064,99.25,192.994,99.25z M295.734,216.99
				c0-56.65-46.09-102.74-102.74-102.74c-56.66,0-102.75,46.09-102.75,102.74s46.09,102.75,102.75,102.75
				C249.644,319.74,295.734,273.64,295.734,216.99z"/>
			<path style="fill:#4D4D4D;" d="M270.234,185.49v63c0,4.14-3.35,7.5-7.5,7.5h-30.74v30.75c0,4.14-3.36,7.5-7.5,7.5h-63
				c-4.14,0-7.5-3.36-7.5-7.5v-30.75h-30.75c-4.14,0-7.5-3.36-7.5-7.5v-63c0-4.14,3.36-7.5,7.5-7.5h30.75v-30.75
				c0-4.14,3.36-7.5,7.5-7.5h63c4.14,0,7.5,3.36,7.5,7.5v30.75h30.74C266.884,177.99,270.234,181.35,270.234,185.49z
				 M255.234,240.99v-48h-30.74c-4.15,0-7.5-3.36-7.5-7.5v-30.75h-48v30.75c0,4.14-3.36,7.5-7.5,7.5h-30.75v48h30.75
				c4.14,0,7.5,3.36,7.5,7.5v30.75h48v-30.75c0-4.14,3.35-7.5,7.5-7.5H255.234z"/>
		</g>
		<g>
		</g>
	</g>
</g>
<g>
</g>
<g>
</g>
<g>
</g>
<g>
</g>
<g>
</g>
<g>
</g>
<g>
</g>
<g>
</g>
<g>
</g>
<g>
</g>
<g>
</g>
<g>
</g>
<g>
</g>
<g>
</g>
<g>
</g>
</svg>
