<?xml version="1.0" encoding="iso-8859-1"?>
<!-- Generator: Adobe Illustrator 18.0.0, SVG Export Plug-In . SVG Version: 6.00 Build 0)  -->
<!DOCTYPE svg PUBLIC "-//W3C//DTD SVG 1.1//EN" "http://www.w3.org/Graphics/SVG/1.1/DTD/svg11.dtd">
<svg version="1.1" id="Capa_1" xmlns="http://www.w3.org/2000/svg" xmlns:xlink="http://www.w3.org/1999/xlink" x="0px" y="0px"
	 viewBox="0 0 129.48 129.48" style="enable-background:new 0 0 129.48 129.48;" xml:space="preserve">
<g>
	<path style="fill:#063C51;" d="M88.481,12.701c0,9.756-2.723,18.574-7.123,24.908c-1.504,2.165-3.196,4.036-5.048,5.553H53.17
		c-0.764-0.625-1.501-1.313-2.205-2.055c-1.012-1.057-1.959-2.226-2.842-3.499C43.722,31.275,41,22.456,41,12.701
		c0-3.219,0.301-6.336,0.859-9.298C42.231,1.427,43.963,0,45.975,0h37.53c1.258,0,2.405,0.559,3.181,1.458
		C87.152,2,87.484,2.663,87.622,3.403C88.18,6.365,88.481,9.481,88.481,12.701z"/>
	<path style="fill:#01374B;" d="M88.481,12.701c0,9.756-2.723,18.574-7.123,24.908c-1.504,2.165-3.196,4.036-5.048,5.553H53.17
		c-0.764-0.625-1.501-1.313-2.205-2.055C79.434,27.256,80.73,4.055,80.73,4.055l5.956-2.597C87.152,2,87.484,2.663,87.622,3.403
		C88.18,6.365,88.481,9.481,88.481,12.701z"/>
	<path style="fill:#337B9C;" d="M87.735,4.056c-0.038-0.216-0.077-0.432-0.117-0.646C87.248,1.43,85.513,0,83.499,0H45.981
		c-2.014,0-3.747,1.43-4.118,3.409c-0.04,0.215-0.079,0.43-0.116,0.646H87.735z"/>
	<rect x="50.857" y="40.919" style="fill:#337B9C;" width="27.767" height="4.487"/>
	<path style="fill:#337B9C;" d="M50.857,120.584v2.616c0,3.469,2.812,6.281,6.281,6.281h15.205c3.469,0,6.281-2.812,6.281-6.281
		v-2.616H50.857z"/>
	<rect x="50.857" y="45.406" style="fill:#063C51;" width="27.767" height="76.161"/>
	<path style="fill:#01374B;" d="M78.624,45.408v76.16H50.856v-5.243c1.766,1.726,3.668,2.666,5.651,2.666
		c9.293,0,16.824-20.639,16.824-46.098c0-10.3-1.233-19.813-3.317-27.485H78.624z"/>
	<path style="fill:#002E40;" d="M65.171,72.176L65.171,72.176c-1.621,0-2.936-1.314-2.936-2.936V59.153
		c0-1.621,1.314-2.936,2.936-2.936l0,0c1.621,0,2.936,1.314,2.936,2.936V69.24C68.107,70.861,66.793,72.176,65.171,72.176z"/>
	<circle style="fill:#FCF063;" cx="65.171" cy="68.813" r="3.363"/>
</g>
<g>
</g>
<g>
</g>
<g>
</g>
<g>
</g>
<g>
</g>
<g>
</g>
<g>
</g>
<g>
</g>
<g>
</g>
<g>
</g>
<g>
</g>
<g>
</g>
<g>
</g>
<g>
</g>
<g>
</g>
</svg>
