<?xml version="1.0" encoding="iso-8859-1"?>
<!-- Generator: Adobe Illustrator 18.0.0, SVG Export Plug-In . SVG Version: 6.00 Build 0)  -->
<!DOCTYPE svg PUBLIC "-//W3C//DTD SVG 1.1//EN" "http://www.w3.org/Graphics/SVG/1.1/DTD/svg11.dtd">
<svg version="1.1" id="Capa_1" xmlns="http://www.w3.org/2000/svg" xmlns:xlink="http://www.w3.org/1999/xlink" x="0px" y="0px"
	 viewBox="0 0 398.916 398.916" style="enable-background:new 0 0 398.916 398.916;" xml:space="preserve">
<g>
	<g id="XMLID_9_">
		<g>
			<path style="fill:#4D4D4D;" d="M396.471,126.037c1.41,1.41,2.2,3.32,2.2,5.31c0,1.99-0.79,3.89-2.2,5.3l-83.83,83.83
				c-1.23,1.23-2.79,1.94-4.39,2.13l-36.65,4.49l-150.9,150.9c-13.32,13.33-31.04,20.67-49.89,20.67s-36.57-7.34-49.89-20.67
				c-13.33-13.33-20.67-31.04-20.67-49.89s7.34-36.57,20.67-49.9l150.9-150.9l4.48-36.64c0,0,0.95-3.2,2.14-4.39l83.83-83.83
				c2.93-2.93,7.67-2.93,10.6,0l15.24,15.23c26.21-0.07,49.87,9.17,66.92,26.21c17.04,17.05,26.28,40.71,26.2,66.92L396.471,126.037
				z M307.341,204.567l73.22-73.22l-5.87-5.87l-73.22,73.22L307.341,204.567z M304.561,34.137l60.22,60.21
				c-2.84-15.51-9.78-29.27-20.36-39.85C333.841,43.917,320.071,36.967,304.561,34.137z M290.861,188.097l73.23-73.23l-12.06-12.05
				l-73.22,73.22L290.861,188.097z M268.201,165.427l73.22-73.22l-12.05-12.05l-73.22,73.22L268.201,165.427z M318.761,69.547
				l-12.05-12.06l-73.23,73.23l12.06,12.05L318.761,69.547z M222.881,120.107l73.22-73.22l-12.06-12.06l-73.22,73.22
				L222.881,120.107z M291.151,209.597l-101.83-101.84l-2.48,20.31l84.01,84.01L291.151,209.597z M200.221,97.447l73.22-73.22
				l-5.87-5.87l-73.22,73.22L200.221,97.447z M110.101,367.397l147.42-147.43l-78.57-78.57l-147.43,147.42
				c-21.66,21.66-21.66,56.91,0,78.58c10.5,10.49,24.45,16.27,39.29,16.27S99.601,377.887,110.101,367.397z"/>
			
				<rect x="289.242" y="160.871" transform="matrix(0.7071 -0.7071 0.7071 0.7071 -16.8069 289.4685)" style="fill:#2F89AD;" width="103.549" height="8.301"/>
			<path style="fill:#E0C732;" d="M364.781,94.347l-60.22-60.21c15.51,2.83,29.28,9.78,39.86,20.36
				C355.001,65.077,361.941,78.837,364.781,94.347z"/>
			<polygon style="fill:#45A1DB;" points="364.091,114.867 290.861,188.097 278.811,176.037 352.031,102.817 			"/>
			
				<rect x="247.012" y="114.271" transform="matrix(0.7071 -0.7071 0.7071 0.7071 0.6853 247.2385)" style="fill:#45A1DB;" width="103.549" height="17.041"/>
			<polygon style="fill:#45A1DB;" points="306.711,57.487 318.761,69.547 245.541,142.767 233.481,130.717 			"/>
			
				<rect x="201.687" y="68.94" transform="matrix(0.7071 -0.7071 0.7071 0.7071 19.4593 201.9136)" style="fill:#45A1DB;" width="103.549" height="17.055"/>
			<polygon style="fill:#69B9E2;" points="189.321,107.757 291.151,209.597 270.851,212.077 186.841,128.067 			"/>
			
				<rect x="182.122" y="53.751" transform="matrix(0.7071 -0.7071 0.7071 0.7071 27.5637 182.3485)" style="fill:#2F89AD;" width="103.549" height="8.301"/>
			<path style="fill:#45A1DB;" d="M257.521,219.967l-147.42,147.43c-10.5,10.49-24.45,16.27-39.29,16.27s-28.79-5.78-39.29-16.27
				c-21.66-21.67-21.66-56.92,0-78.58l147.43-147.42L257.521,219.967z M199.751,190.477c0-6.61-2.58-12.83-7.25-17.5
				c-4.68-4.68-10.89-7.25-17.5-7.25s-12.83,2.57-17.5,7.25l-33.94,33.94c-4.68,4.67-7.25,10.89-7.25,17.5s2.57,12.82,7.25,17.5
				c4.82,4.82,11.16,7.23,17.5,7.23c6.34,0,12.67-2.41,17.5-7.23l33.94-33.94c2.34-2.34,4.15-5.06,5.38-8.03
				C199.101,196.987,199.751,193.787,199.751,190.477z"/>
			<path style="fill:#4D4D4D;" d="M192.501,172.977c4.67,4.67,7.25,10.89,7.25,17.5c0,3.31-0.65,6.51-1.87,9.47
				c-1.23,2.97-3.04,5.69-5.38,8.03l-33.94,33.94c-4.83,4.82-11.16,7.23-17.5,7.23c-6.34,0-12.68-2.41-17.5-7.23
				c-4.68-4.68-7.25-10.89-7.25-17.5s2.57-12.83,7.25-17.5l33.94-33.94c4.67-4.68,10.89-7.25,17.5-7.25
				S187.821,168.297,192.501,172.977z M184.751,190.477c0-2.61-1.02-5.05-2.86-6.9c-1.9-1.9-4.4-2.85-6.89-2.85
				c-2.5,0-4.99,0.95-6.9,2.85l-33.93,33.94c-1.85,1.84-2.86,4.29-2.86,6.9c0,2.6,1.01,5.05,2.86,6.89c3.8,3.8,9.98,3.8,13.78,0
				l33.94-33.94C183.731,195.527,184.751,193.077,184.751,190.477z"/>
			<path style="fill:#69B9E2;" d="M181.891,183.577c1.84,1.85,2.86,4.29,2.86,6.9c0,2.6-1.02,5.05-2.86,6.89l-33.94,33.94
				c-3.8,3.8-9.98,3.8-13.78,0c-1.85-1.84-2.86-4.29-2.86-6.89c0-2.61,1.01-5.06,2.86-6.9l33.93-33.94c1.91-1.9,4.4-2.85,6.9-2.85
				C177.491,180.727,179.991,181.677,181.891,183.577z"/>
		</g>
		<g>
		</g>
	</g>
</g>
<g>
</g>
<g>
</g>
<g>
</g>
<g>
</g>
<g>
</g>
<g>
</g>
<g>
</g>
<g>
</g>
<g>
</g>
<g>
</g>
<g>
</g>
<g>
</g>
<g>
</g>
<g>
</g>
<g>
</g>
</svg>
