<?xml version="1.0" encoding="iso-8859-1"?>
<!-- Generator: Adobe Illustrator 19.0.0, SVG Export Plug-In . SVG Version: 6.00 Build 0)  -->
<svg version="1.1" id="Layer_1" xmlns="http://www.w3.org/2000/svg" xmlns:xlink="http://www.w3.org/1999/xlink" x="0px" y="0px"
	 viewBox="0 0 512 512" style="enable-background:new 0 0 512 512;" xml:space="preserve">
<path style="fill:#FF583E;" d="M430,56L374,0H254h-14.4h-104l-56,56v52.8c0,20.2,13.624,36.536,32,41.864
	c0.544,0.16,1.048,0.4,1.6,0.544c3.2,0.792,6.4,0.792,9.6,0.792c24,0,44-19.2,44-44c0,24,20,44,44,44s44-19.2,44-44
	c0,24,20,44,44,44s44-19.2,44-44c0,24,20,44,44,44c2.952,0,6.544-0.696,9.6-1.432c0.256-0.064,0.552-0.104,0.8-0.168
	c19.2-4.8,33.6-21.6,33.6-42.4L430,56z"/>
<path style="fill:#EAEAEA;" d="M210.8,289.6V188h88v101.6h97.6V150.568c-3.056,0.736-6.648,1.432-9.6,1.432c-24,0-44-20-44-44
	c0,24.8-20,44-44,44s-44-20-44-44c0,24.8-20,44-44,44s-44-20-44-44c0,24.8-20,44-44,44c-3.2,0-6.4,0-9.6-0.8
	c-0.552-0.136-1.056-0.384-1.6-0.544V289.6h1.6H210.8z"/>
<polygon points="396.4,289.6 298.8,289.6 298.8,188 210.8,188 210.8,289.6 113.2,289.6 111.6,289.6 79.6,289.6 79.6,311.2 
	430,311.2 430,289.6 "/>
<path d="M33.2,478.4c8,4,20.8,8,33.6,8c13.6,0,21.6-5.6,21.6-14.4c0-8-6.4-12.8-22.4-19.2c-22.4-8-36.8-20-36.8-39.2
	c0-23.2,19.2-40,50.4-40c15.2,0,26.4,3.2,34.4,6.4l-6.4,24.8c-5.6-2.4-15.2-6.4-28-6.4s-19.2,5.6-19.2,12.8c0,8.8,7.2,12,24.8,19.2
	c24,8.8,34.4,20.8,34.4,40c0,22.4-17.6,41.6-54.4,41.6c-15.2,0-30.4-4-37.6-8L33.2,478.4z"/>
<path d="M170.8,384.8v28h21.6v22.4h-21.6v35.2c0,12,2.4,16.8,12,16.8c4,0,6.4,0,8.8-0.8v23.2c-4,1.6-11.2,2.4-20,2.4
	c-9.6,0-17.6-3.2-22.4-8c-5.6-5.6-8-15.2-8-28.8v-40h-12.8v-22.4h12.8V392L170.8,384.8z"/>
<path d="M305.2,460c0,35.2-25.6,52-51.2,52c-28.8,0-50.4-18.4-50.4-50.4s20.8-51.2,52-51.2C285.2,410.4,305.2,431.2,305.2,460z
	 M234.8,460.8c0,16.8,7.2,29.6,20,29.6c12,0,19.2-12,19.2-29.6c0-14.4-5.6-29.6-19.2-29.6C240.4,432,234.8,447.2,234.8,460.8z"/>
<path d="M323.6,444.8c0-14.4,0-24-0.8-32h26.4l0.8,17.6h0.8c4.8-14.4,16.8-20,26.4-20c2.4,0,4,0,6.4,0v28.8c-2.4,0-4.8-0.8-8-0.8
	c-11.2,0-18.4,5.6-20.8,15.2c0,1.6-0.8,4-0.8,6.4v49.6h-30.4V444.8z"/>
<path d="M421.2,471.2c0.8,12.8,13.6,18.4,27.2,18.4c10.4,0,18.4-1.6,27.2-4l4,20.8c-9.6,4-22.4,5.6-35.2,5.6
	c-32.8,0-52-19.2-52-49.6c0-24.8,15.2-52,48.8-52c31.2,0,43.2,24.8,43.2,48.8c0,4.8-0.8,9.6-0.8,12L421.2,471.2L421.2,471.2z
	 M456.4,450.4c0-7.2-3.2-20-16.8-20c-12.8,0-17.6,11.2-18.4,20H456.4z"/>
<g>
</g>
<g>
</g>
<g>
</g>
<g>
</g>
<g>
</g>
<g>
</g>
<g>
</g>
<g>
</g>
<g>
</g>
<g>
</g>
<g>
</g>
<g>
</g>
<g>
</g>
<g>
</g>
<g>
</g>
</svg>
