<?xml version="1.0" encoding="utf-8"?>
<!-- Generator: Adobe Illustrator 18.0.0, SVG Export Plug-In . SVG Version: 6.00 Build 0)  -->
<!DOCTYPE svg PUBLIC "-//W3C//DTD SVG 1.1//EN" "http://www.w3.org/Graphics/SVG/1.1/DTD/svg11.dtd">
<svg version="1.1" id="Layer_1" xmlns="http://www.w3.org/2000/svg" xmlns:xlink="http://www.w3.org/1999/xlink" x="0px" y="0px"
	 viewBox="0 0 189.8 40.2" enable-background="new 0 0 189.8 40.2" xml:space="preserve">
<g>
	<g>
		<g>
			<path fill="#FFE313" d="M2.7,13.6c-3.6,3.6-3.6,9.4,0,13l12.7,12.7c0.6,0.6,1.4,0.9,2.1,0.9c2,0,3.9-2,2.9-4.3
				c0,0-1.1-1.9-2.5-4.3l-4.7-8c0-0.1-0.1-0.2-0.1-0.3c0,0,0,0,0-0.1C8.8,15.8,9.8,7.2,15.2,1.2L2.7,13.6z"/>
			<path fill="#FFBC00" d="M20.3,1.7c-0.5-0.8-1.4-1.3-2.3-1.3c-0.7,0-1.3,0.3-1.9,0.8L16,1.4c-4.6,5.2-5.8,12.3-3.4,18.8
				c0-0.5,0-1.1,0.1-1.6c0.2-1,0.6-2,1.1-3l6.8-11.5C20.9,3.3,20.8,2.4,20.3,1.7z"/>
		</g>
		<g>
			<path fill="#FFE313" d="M45.3,26.6c3.6-3.6,3.6-9.4,0-13L32.6,0.9C32,0.3,31.2,0,30.5,0c-2,0-3.9,2-2.9,4.3c0,0,1.1,1.9,2.5,4.3
				l4.7,8c0,0.1,0.1,0.2,0.1,0.3c0,0,0,0,0,0.1c4.2,7.5,3.2,16.1-2.1,22.1L45.3,26.6z"/>
			<path fill="#FFBC00" d="M35.5,20c0,0.5,0,1.1-0.1,1.6c-0.2,1-0.6,2-1.1,3l-6.8,11.5c-0.4,0.9-0.3,1.7,0.2,2.5
				c0.5,0.8,1.4,1.3,2.3,1.3h0c0.7,0,1.3-0.3,1.9-0.8l0.2-0.2C36.6,33.6,37.9,26.5,35.5,20z"/>
		</g>
	</g>
	<g>
		<g>
			<path fill="none" d="M77.4,13.2c-0.8-0.9-1.7-1.6-2.9-2.1c-1.1-0.5-2.4-0.7-3.8-0.7h-4.6v19h4.6c1.4,0,2.7-0.2,3.8-0.7
				c1.1-0.5,2.1-1.1,2.8-2c0.8-0.8,1.4-1.8,1.8-3c0.4-1.1,0.6-2.4,0.7-3.8c0-1.3-0.2-2.5-0.6-3.7C78.8,15.1,78.2,14.1,77.4,13.2z"/>
			<path fill="none" d="M97.4,19.1c-0.5-0.6-1.1-1-1.8-1.3c-0.7-0.3-1.4-0.5-2.2-0.5s-1.5,0.2-2.2,0.5c-0.7,0.3-1.3,0.7-1.8,1.3
				c-0.5,0.6-0.9,1.2-1.2,1.9c-0.3,0.7-0.4,1.5-0.4,2.4c0,0.9,0.1,1.7,0.4,2.4c0.3,0.7,0.7,1.4,1.2,1.9c0.5,0.6,1.1,1,1.8,1.3
				c0.7,0.3,1.4,0.5,2.2,0.5s1.5-0.2,2.2-0.5c0.7-0.3,1.3-0.7,1.8-1.3s0.9-1.2,1.2-1.9c0.3-0.7,0.4-1.5,0.4-2.4
				c0-0.9-0.1-1.7-0.4-2.4C98.3,20.3,97.9,19.7,97.4,19.1z"/>
			<path fill="none" d="M97.4,19.1c-0.5-0.6-1.1-1-1.8-1.3c-0.7-0.3-1.4-0.5-2.2-0.5s-1.5,0.2-2.2,0.5c-0.7,0.3-1.3,0.7-1.8,1.3
				c-0.5,0.6-0.9,1.2-1.2,1.9c-0.3,0.7-0.4,1.5-0.4,2.4c0,0.9,0.1,1.7,0.4,2.4c0.3,0.7,0.7,1.4,1.2,1.9c0.5,0.6,1.1,1,1.8,1.3
				c0.7,0.3,1.4,0.5,2.2,0.5s1.5-0.2,2.2-0.5c0.7-0.3,1.3-0.7,1.8-1.3s0.9-1.2,1.2-1.9c0.3-0.7,0.4-1.5,0.4-2.4
				c0-0.9-0.1-1.7-0.4-2.4C98.3,20.3,97.9,19.7,97.4,19.1z"/>
			<path fill="none" d="M97.4,19.1c-0.5-0.6-1.1-1-1.8-1.3c-0.7-0.3-1.4-0.5-2.2-0.5s-1.5,0.2-2.2,0.5c-0.7,0.3-1.3,0.7-1.8,1.3
				c-0.5,0.6-0.9,1.2-1.2,1.9c-0.3,0.7-0.4,1.5-0.4,2.4c0,0.9,0.1,1.7,0.4,2.4c0.3,0.7,0.7,1.4,1.2,1.9c0.5,0.6,1.1,1,1.8,1.3
				c0.7,0.3,1.4,0.5,2.2,0.5s1.5-0.2,2.2-0.5c0.7-0.3,1.3-0.7,1.8-1.3s0.9-1.2,1.2-1.9c0.3-0.7,0.4-1.5,0.4-2.4
				c0-0.9-0.1-1.7-0.4-2.4C98.3,20.3,97.9,19.7,97.4,19.1z"/>
			<path fill="none" d="M93.4,12.9c0.4,0,0.7,0,1.1,0.1C94.1,12.9,93.8,12.9,93.4,12.9z"/>
			<path fill="none" d="M96.6,19.8c-0.4-0.5-0.9-0.8-1.5-1.1c-0.6-0.3-1.1-0.4-1.8-0.4c-0.6,0-1.2,0.1-1.8,0.4
				c-0.6,0.3-1,0.6-1.5,1.1c-0.4,0.5-0.8,1-1,1.6c-0.2,0.6-0.4,1.3-0.4,2c0,0.7,0.1,1.4,0.4,2c0.2,0.6,0.6,1.2,1,1.6
				c0.4,0.5,0.9,0.8,1.5,1.1c0.6,0.3,1.1,0.4,1.8,0.4c0.6,0,1.2-0.1,1.8-0.4c0.6-0.3,1-0.6,1.5-1.1c0.4-0.5,0.8-1,1-1.6
				c0.2-0.6,0.4-1.3,0.4-2c0-0.7-0.1-1.4-0.4-2C97.4,20.8,97.1,20.3,96.6,19.8z"/>
			<path fill="none" d="M94.5,12.9c0.4,0,0.7,0.1,1.1,0.2C95.2,13,94.8,13,94.5,12.9z"/>
			<path fill="none" d="M94.5,34c-0.4,0-0.7,0.1-1.1,0.1C93.8,34.1,94.1,34,94.5,34z"/>
			<path fill="none" d="M83.7,19.3c0.2-0.4,0.4-0.8,0.6-1.1C84,18.6,83.8,19,83.7,19.3z"/>
			<path fill="none" d="M95.5,33.8c-0.3,0.1-0.7,0.1-1.1,0.2C94.8,34,95.2,33.9,95.5,33.8z"/>
			<path fill="#4F4F4F" d="M97.5,13.7c-0.6-0.3-1.3-0.5-2-0.6c-0.3-0.1-0.7-0.1-1.1-0.2s-0.7-0.1-1.1-0.1c-1.4,0-2.8,0.3-4.1,0.8
				C88,14.2,86.9,15,85.9,16c-0.4,0.4-0.7,0.8-1,1.2c-0.2,0.3-0.5,0.7-0.7,1c-0.2,0.4-0.4,0.7-0.6,1.1c-0.6,1.3-0.8,2.7-0.8,4.1
				c0,0.8,0.1,1.6,0.3,2.4c0.1,0.5,0.2,0.9,0.4,1.3c0.1,0.1,0.1,0.3,0.2,0.4c0.6,1.3,1.3,2.4,2.3,3.4c1,1,2.1,1.7,3.4,2.2
				c1.3,0.5,2.7,0.8,4.1,0.8c0.4,0,0.7,0,1.1-0.1c0.4,0,0.7-0.1,1.1-0.2c0.7-0.1,1.4-0.3,2-0.6c1.3-0.5,2.4-1.3,3.4-2.2
				c0.8-0.8,1.5-1.8,2-2.9v-4.7v-4.7c-0.5-1.1-1.2-2.1-2-2.9C100,15,98.8,14.2,97.5,13.7z M98.6,25.9c-0.3,0.7-0.7,1.4-1.2,1.9
				s-1.1,1-1.8,1.3c-0.2,0.1-0.3,0.1-0.5,0.2c-0.4,0.1-0.9,0.2-1.4,0.3c-0.1,0-0.2,0-0.3,0c-0.8,0-1.5-0.2-2.2-0.5
				c-0.7-0.3-1.3-0.7-1.8-1.3c-0.5-0.6-0.9-1.2-1.2-1.9c-0.3-0.7-0.4-1.5-0.4-2.4c0-0.9,0.1-1.7,0.4-2.4c0.3-0.7,0.7-1.4,1.2-1.9
				c0.5-0.6,1.1-1,1.8-1.3c0.7-0.3,1.4-0.5,2.2-0.5c0.1,0,0.2,0,0.3,0c0.5,0,0.9,0.1,1.4,0.3c0.2,0.1,0.4,0.1,0.5,0.2
				c0.7,0.3,1.3,0.7,1.8,1.3c0.5,0.6,0.9,1.2,1.2,1.9c0.3,0.7,0.4,1.5,0.4,2.4C99.1,24.3,98.9,25.1,98.6,25.9z"/>
			<path fill="none" d="M97.4,19.1c-0.5-0.6-1.1-1-1.8-1.3c-0.2-0.1-0.3-0.1-0.5-0.2c-0.4-0.1-0.9-0.2-1.4-0.3c-0.1,0-0.2,0-0.3,0
				c-0.8,0-1.5,0.2-2.2,0.5c-0.7,0.3-1.3,0.7-1.8,1.3c-0.5,0.6-0.9,1.2-1.2,1.9c-0.3,0.7-0.4,1.5-0.4,2.4c0,0.9,0.1,1.7,0.4,2.4
				c0.3,0.7,0.7,1.4,1.2,1.9c0.5,0.6,1.1,1,1.8,1.3c0.7,0.3,1.4,0.5,2.2,0.5c0.1,0,0.2,0,0.3,0c0.5,0,0.9-0.1,1.4-0.3
				c0.2-0.1,0.4-0.1,0.5-0.2c0.7-0.3,1.3-0.7,1.8-1.3s0.9-1.2,1.2-1.9c0.3-0.7,0.4-1.5,0.4-2.4c0-0.9-0.1-1.7-0.4-2.4
				C98.3,20.3,97.9,19.7,97.4,19.1z M97.7,25.5c-0.2,0.6-0.6,1.2-1,1.6c-0.4,0.5-0.9,0.8-1.5,1.1c-0.6,0.3-1.1,0.4-1.8,0.4
				c-0.6,0-1.2-0.1-1.8-0.4c-0.6-0.3-1-0.6-1.5-1.1c-0.4-0.5-0.8-1-1-1.6c-0.2-0.6-0.4-1.3-0.4-2c0-0.7,0.1-1.4,0.4-2
				c0.2-0.6,0.6-1.2,1-1.6c0.4-0.5,0.9-0.8,1.5-1.1c0.6-0.3,1.1-0.4,1.8-0.4c0.6,0,1.2,0.1,1.8,0.4c0.6,0.3,1,0.6,1.5,1.1
				c0.4,0.5,0.8,1,1,1.6c0.2,0.6,0.4,1.3,0.4,2C98,24.2,97.9,24.9,97.7,25.5z"/>
			<g>
				<path fill="#4F4F4F" d="M83.1,25.8c0.1,0.5,0.2,0.9,0.4,1.3c-0.2-0.5-0.3-1.1-0.4-1.7C83,25.6,83,25.7,83.1,25.8z"/>
				<path fill="#4F4F4F" d="M83,25.2c-0.1-0.6-0.1-1.1-0.1-1.7C82.8,24.1,82.9,24.6,83,25.2z"/>
				<path fill="#4F4F4F" d="M82.7,28c-0.1-0.1-0.1-0.3-0.2-0.5c-0.5-1.3-0.7-2.6-0.7-4.1c0-1.6,0.3-3.1,0.9-4.5
					c0.4-0.8,0.8-1.6,1.4-2.4c0.2-0.2,0.4-0.4,0.5-0.6c-0.1-0.4-0.2-0.8-0.4-1.2c-0.6-1.7-1.5-3.2-2.7-4.4c-1.1-1.3-2.5-2.3-4.1-3
					c-1.6-0.7-3.3-1.1-5.2-1.1H60.7v27.9h11.5c1.9,0,3.6-0.4,5.2-1.1c1.6-0.7,3-1.7,4.1-3c0.5-0.5,0.9-1.1,1.3-1.7
					C82.8,28.2,82.7,28.1,82.7,28z M79.1,23.8c-0.4,1.1-1,2.1-1.8,3c-0.8,0.8-1.7,1.5-2.8,2c-1.1,0.5-2.4,0.7-3.8,0.7h-4.6v-19h4.6
					c1.4,0,2.7,0.2,3.8,0.7c1.1,0.5,2.1,1.2,2.9,2.1c0.8,0.9,1.4,1.9,1.8,3c0.4,1.2,0.6,2.4,0.6,3.7C79.8,21.4,79.5,22.6,79.1,23.8z
					"/>
			</g>
			<path fill="none" d="M125.8,18.8c-0.1,0.1-0.2,0.2-0.4,0.3C125.6,19,125.7,18.9,125.8,18.8z"/>
			<path fill="none" d="M127.9,17.8c-0.1,0-0.2,0-0.3,0.1C127.7,17.9,127.8,17.8,127.9,17.8z"/>
			<path fill="none" d="M127.7,17.9c-0.1,0-0.2,0.1-0.3,0.1C127.4,17.9,127.5,17.9,127.7,17.9z"/>
			<path fill="none" d="M131.4,13.6c0.2,0.1,0.5,0.1,0.7,0.2C131.9,13.7,131.6,13.6,131.4,13.6z"/>
			<path fill="none" d="M129.9,13.4L129.9,13.4c0.2,0,0.5,0,0.7,0C130.4,13.4,130.2,13.4,129.9,13.4z"/>
			<path fill="none" d="M128.7,17.7c-0.1,0-0.2,0-0.3,0C128.5,17.7,128.6,17.7,128.7,17.7z"/>
			<polygon fill="none" points="119.2,30.7 119.2,30.7 113.7,23.7 			"/>
			<path fill="none" d="M133.6,14.4c0.2,0.1,0.5,0.3,0.7,0.4C134,14.7,133.8,14.6,133.6,14.4z"/>
			<polygon fill="none" points="119.2,29 119.2,18.7 115,23.7 			"/>
			<path fill="none" d="M137.3,20.6c0,0.2,0,0.5,0.1,0.7C137.4,21.1,137.3,20.8,137.3,20.6z"/>
			<path fill="none" d="M125.9,18.8c0.4-0.3,0.7-0.5,1-0.6c0,0,0.1,0,0.1,0c0,0-0.1,0-0.1,0C126.6,18.3,126.3,18.5,125.9,18.8z"/>
			
				<rect x="124.4" y="14.7" transform="matrix(3.993218e-003 1 -1 3.993218e-003 139.3615 -110.5663)" fill="none" width="1.5" height="0"/>
			<rect x="125.2" y="19.4" fill="none" width="0" height="14.7"/>
			<path fill="none" d="M134.2,14.9c0.2,0.2,0.4,0.3,0.6,0.5C134.6,15.2,134.4,15,134.2,14.9z"/>
			<path fill="none" d="M149.3,18.8c0.1,0.3,0.1,0.6,0.2,0.9C149.5,19.4,149.4,19.1,149.3,18.8z"/>
			<path fill="none" d="M149.2,18.4c0-0.1-0.1-0.3-0.1-0.4c-0.1-0.3-0.2-0.5-0.3-0.8c0.1,0.2,0.2,0.5,0.3,0.8
				C149.1,18.1,149.1,18.3,149.2,18.4z"/>
			<path fill="none" d="M138.5,14c0.3-0.1,0.5-0.2,0.8-0.3C139.1,13.8,138.8,13.9,138.5,14z"/>
			<path fill="none" d="M128.7,17.7c0.1,0,0.2,0,0.3,0l0,0C128.9,17.7,128.8,17.7,128.7,17.7z"/>
			<polygon fill="#4F4F4F" points="109.1,22.5 109.1,6.2 104,6.2 104,23.5 104,34.1 109.1,34.1 109.1,25 116,34.1 119.2,34.1 
				119.2,30.7 113.7,23.7 119.2,17.1 119.2,13.9 116,13.9 			"/>
			<polygon fill="none" points="119.2,34.1 116,34.1 109.1,25 109.1,34.1 104,34.1 104,23.5 104,6.2 109.1,6.2 109.1,22.5 116,13.9 
				119.2,13.9 119.2,12.9 116,12.9 115.5,12.9 115.2,13.3 110.1,19.5 110.1,6.2 110.1,5.2 109.1,5.2 104,5.2 103,5.2 103,6.2 
				103,16.7 103,18.8 103,23.5 103,28.1 103,30.2 103,34.1 103,35.1 104,35.1 109.1,35.1 110.1,35.1 110.1,34.1 110.1,28.1 
				115.2,34.7 115.5,35.1 116,35.1 119.2,35.1 119.2,34.1 			"/>
			<polygon fill="none" points="119.2,30.7 119.2,29 115,23.7 119.2,18.7 119.2,17.1 113.7,23.7 			"/>
			
				<rect x="124.4" y="14.7" transform="matrix(3.993218e-003 1 -1 3.993218e-003 139.3615 -110.5663)" fill="none" width="1.5" height="0"/>
			<path fill="none" d="M125.9,18.8c0.4-0.3,0.7-0.5,1-0.6c0,0,0.1,0,0.1,0c0,0-0.1,0-0.1,0C126.6,18.3,126.3,18.5,125.9,18.8z"/>
			<path fill="none" d="M149.2,18.4c0-0.1-0.1-0.3-0.1-0.4c-0.1-0.3-0.2-0.5-0.3-0.8c0.1,0.2,0.2,0.5,0.3,0.8
				C149.1,18.1,149.1,18.3,149.2,18.4z"/>
			<rect x="125.2" y="19.4" fill="none" width="0" height="14.7"/>
			<path fill="none" d="M125.8,18.8c-0.1,0.1-0.2,0.2-0.4,0.3C125.6,19,125.7,18.9,125.8,18.8z"/>
			<path fill="none" d="M129.9,13.4L129.9,13.4c0.2,0,0.5,0,0.7,0C130.4,13.4,130.2,13.4,129.9,13.4z"/>
			<path fill="none" d="M162.8,19.2c-0.8-0.6-1.7-0.9-2.7-0.9c-1,0-1.9,0.3-2.7,0.9c-0.4,0.3-0.8,0.8-1.1,1.2h7.6
				C163.6,20,163.3,19.6,162.8,19.2z"/>
			<path fill="none" d="M159,12.9c0.4,0,0.7-0.1,1.1-0.1C159.7,12.9,159.4,12.9,159,12.9z"/>
			<path fill="#4F4F4F" d="M149.2,18.4c0-0.1-0.1-0.3-0.1-0.4c-0.1-0.3-0.2-0.5-0.3-0.8c-0.4-0.7-0.8-1.3-1.3-1.9
				c-0.7-0.7-1.5-1.2-2.4-1.5c-0.9-0.3-1.9-0.5-2.9-0.5c-0.9,0-1.8,0.1-2.7,0.3c-0.3,0.1-0.5,0.2-0.8,0.3c-1.1,0.4-2.1,1.1-3.1,2
				c-0.2-0.2-0.4-0.4-0.6-0.6c-0.2-0.2-0.4-0.4-0.6-0.5c-0.2-0.2-0.4-0.3-0.7-0.4c-0.2-0.1-0.5-0.3-0.7-0.4
				c-0.2-0.1-0.5-0.2-0.7-0.3c-0.2-0.1-0.5-0.2-0.7-0.2c-0.2-0.1-0.5-0.1-0.7-0.1c-0.2,0-0.5,0-0.7,0c-0.9,0-1.7,0.2-2.6,0.6
				c-0.5,0.2-1,0.5-1.4,0.8c-0.1,0.1-0.2,0.1-0.3,0.2c-0.2,0.1-0.3,0.3-0.5,0.4v0l0,0l0-1.5h-3.4h-1.6v20.1h5V19.4l0,0
				c0.1-0.1,0.2-0.2,0.3-0.2c0.1-0.1,0.3-0.2,0.4-0.3c0,0,0.1-0.1,0.1-0.1c0.4-0.3,0.7-0.5,1-0.6c0,0,0.1,0,0.1,0
				c0.1,0,0.2-0.1,0.3-0.1c0.1,0,0.2-0.1,0.3-0.1c0.1,0,0.2,0,0.3-0.1c0.1,0,0.3,0,0.4-0.1c0.1,0,0.2,0,0.3,0c0.1,0,0.2,0,0.3,0h0
				c0.2,0,0.5,0,0.7,0.1c0.1,0,0.1,0,0.2,0c0.6,0.2,1.1,0.5,1.6,1c0.3,0.4,0.6,0.8,0.8,1.4c0.1,0.3,0.1,0.6,0.2,0.9
				c0,0.3,0.1,0.6,0.1,1v12h5V22c0-0.3,0-0.5,0-0.7c0-0.2,0-0.5-0.1-0.7c-0.1-0.5-0.1-0.9-0.2-1.3c0.6-0.6,1.3-1,2-1.2
				c0.7-0.2,1.4-0.4,2.1-0.4c1,0,1.8,0.4,2.5,1.1c0.2,0.2,0.3,0.4,0.4,0.6c0.1,0.2,0.2,0.5,0.3,0.7c0.1,0.3,0.1,0.6,0.2,0.9
				c0,0.3,0.1,0.6,0.1,1v12h5v-5.4c-0.1-0.2-0.2-0.4-0.3-0.6c-0.6-1.4-0.9-2.9-0.9-4.5c0-1.6,0.3-3.1,0.9-4.5c0-0.1,0-0.1,0-0.2
				C149.3,18.7,149.2,18.5,149.2,18.4z"/>
			<path fill="none" d="M149.7,34.1h-5V22c0-0.4,0-0.7-0.1-1c0-0.3-0.1-0.6-0.2-0.9c-0.1-0.3-0.2-0.5-0.3-0.7
				c-0.1-0.2-0.3-0.4-0.4-0.6c-0.7-0.7-1.5-1.1-2.5-1.1c-0.8,0-1.5,0.1-2.1,0.4c-0.7,0.2-1.3,0.6-2,1.2c0.1,0.4,0.2,0.8,0.2,1.3
				c0,0.2,0,0.5,0.1,0.7c0,0.2,0,0.5,0,0.7v12h-5V22c0-0.4,0-0.7-0.1-1c0-0.3-0.1-0.6-0.2-0.9c-0.2-0.5-0.4-1-0.8-1.4
				c-0.5-0.5-1-0.8-1.6-1c-0.1,0-0.1,0-0.2,0c-0.2,0-0.5-0.1-0.7-0.1h0c-0.1,0-0.2,0-0.3,0c-0.1,0-0.2,0-0.3,0c-0.2,0-0.3,0-0.4,0.1
				c-0.1,0-0.2,0-0.3,0.1c-0.1,0-0.2,0.1-0.3,0.1c-0.1,0-0.2,0.1-0.3,0.1c0,0-0.1,0-0.1,0c-0.3,0.2-0.7,0.4-1,0.6
				c0,0-0.1,0.1-0.1,0.1c-0.1,0.1-0.2,0.2-0.4,0.3c-0.1,0.1-0.2,0.2-0.3,0.2v14.7h0h-5V13.9h1.6h3.4h0l0,1.5v0
				c0.2-0.2,0.3-0.3,0.5-0.4c0.1-0.1,0.2-0.1,0.3-0.2c0.4-0.3,0.9-0.6,1.4-0.8c0.8-0.4,1.7-0.6,2.6-0.6l0,0c0.2,0,0.5,0,0.7,0
				c0.2,0,0.5,0.1,0.7,0.1c0.2,0.1,0.5,0.1,0.7,0.2c0.2,0.1,0.5,0.2,0.7,0.3c0.2,0.1,0.5,0.2,0.7,0.4c0.2,0.1,0.5,0.3,0.7,0.4
				c0.2,0.2,0.4,0.3,0.6,0.5c0.2,0.2,0.4,0.4,0.6,0.6c1-0.9,2.1-1.6,3.1-2c0.3-0.1,0.5-0.2,0.8-0.3c0.8-0.2,1.7-0.3,2.7-0.3
				c1,0,2,0.2,2.9,0.5c0.9,0.3,1.7,0.8,2.4,1.5c0.5,0.5,1,1.1,1.3,1.9c0.1,0.2,0.2,0.5,0.3,0.8c0.1,0.1,0.1,0.3,0.1,0.4
				c0,0.1,0.1,0.3,0.1,0.4c0,0.1,0,0.1,0,0.2c0,0,0,0,0-0.1c0.2-0.4,0.4-0.9,0.7-1.3c0,0,0,0,0,0c-0.5-1.2-1.1-2.2-1.9-3
				c-0.8-0.8-1.8-1.4-2.8-1.7c-1-0.3-2.1-0.5-3.3-0.5c-1.4,0-2.7,0.2-3.8,0.7c-0.9,0.3-1.8,0.9-2.7,1.5c-0.7-0.6-1.4-1.1-2.2-1.4
				c-1.1-0.5-2.2-0.8-3.3-0.8c-1,0-2,0.2-3,0.6c-0.2,0.1-0.5,0.2-0.7,0.4l0-0.5h-1H124h-2.2h-1.6h-1v1v3.2v1.6V29v1.7v0v3.3v0v1v0h1
				h5h1v-1V19.9c0.4-0.4,0.8-0.6,1.2-0.8c0.4-0.2,1-0.3,1.6-0.3c0.7,0,1.2,0.2,1.7,0.8c0.5,0.5,0.7,1.4,0.7,2.5v12v1h1h5h1v-1V22
				c0-0.8-0.1-1.6-0.2-2.3c0.4-0.3,0.8-0.5,1.2-0.6c0.6-0.2,1.2-0.3,1.8-0.3c0.7,0,1.2,0.2,1.7,0.8c0.5,0.5,0.7,1.4,0.7,2.5v12v1h1
				h5h1v-1v-3.7c-0.4-0.5-0.7-1.1-1-1.7V34.1z"/>
			<path fill="none" d="M163.5,18.4c-0.4-0.3-0.8-0.5-1.2-0.7c-0.7-0.3-1.4-0.5-2.2-0.5c-0.8,0-1.5,0.2-2.2,0.5
				c-0.4,0.2-0.8,0.4-1.2,0.7c-0.2,0.2-0.5,0.4-0.7,0.6c-0.6,0.7-1.1,1.5-1.4,2.5h10.9c-0.3-1-0.8-1.8-1.4-2.5
				C163.9,18.8,163.7,18.6,163.5,18.4z M156.3,20.4c0.3-0.5,0.7-0.9,1.1-1.2c0.8-0.6,1.7-0.9,2.7-0.9c1,0,1.9,0.3,2.7,0.9
				c0.4,0.3,0.8,0.7,1.1,1.2H156.3z"/>
			<path fill="none" d="M156.3,26.6c0.3,0.4,0.6,0.8,1,1.1c0.4,0.3,0.8,0.6,1.3,0.7c0.5,0.2,1,0.3,1.7,0.3c0.8,0,1.6-0.1,2.3-0.4
				c0.8-0.3,1.4-0.6,1.9-1.1l0.7-0.7l0.7,0.7l3.1,3.2l0.6,0.6v-4.5L156.3,26.6C156.3,26.6,156.3,26.6,156.3,26.6z"/>
			<path fill="none" d="M163.5,18.4c-0.4-0.3-0.8-0.5-1.2-0.7c-0.7-0.3-1.4-0.5-2.2-0.5c-0.8,0-1.5,0.2-2.2,0.5
				c-0.4,0.2-0.8,0.4-1.2,0.7c-0.2,0.2-0.5,0.4-0.7,0.6c-0.6,0.7-1.1,1.5-1.4,2.5h10.9c-0.3-1-0.8-1.8-1.4-2.5
				C163.9,18.8,163.7,18.6,163.5,18.4z"/>
			<path fill="#4F4F4F" d="M167.5,15.8c-1-0.9-2.1-1.7-3.4-2.2c-1.3-0.5-2.6-0.8-4-0.8c-0.4,0-0.7,0-1.1,0.1c-1.1,0.1-2.1,0.4-3,0.8
				c-1.3,0.6-2.4,1.3-3.4,2.3c-1,1-1.7,2.1-2.3,3.4c-0.6,1.3-0.8,2.7-0.8,4.1c0,0.4,0,0.7,0.1,1.1c0.1,1.1,0.4,2.1,0.8,3
				c0.1,0.2,0.1,0.3,0.2,0.5c0.4,0.8,0.8,1.5,1.4,2.1c0.2,0.3,0.4,0.5,0.7,0.7c0.4,0.4,0.7,0.7,1.1,1c0.4,0.3,0.8,0.6,1.3,0.8
				c0.3,0.2,0.6,0.3,0.9,0.5c1.3,0.6,2.7,0.8,4.2,0.8c0.6,0,1.1,0,1.6-0.1c0.9-0.1,1.7-0.3,2.6-0.6c0.2-0.1,0.3-0.1,0.5-0.2
				c1.2-0.4,2.3-1.1,3.5-2l-3.1-3.2c-0.6,0.5-1.3,1-2.2,1.3c-0.9,0.3-1.8,0.5-2.7,0.5c-0.7,0-1.4-0.1-2-0.3
				c-0.6-0.2-1.2-0.5-1.6-0.9c-0.5-0.4-0.9-0.8-1.2-1.4c-0.3-0.5-0.6-1.1-0.8-1.7h15v-6.7C169.1,17.7,168.4,16.7,167.5,15.8z
				 M154.7,21.5c0.3-1,0.8-1.8,1.4-2.5c0.2-0.2,0.4-0.4,0.7-0.6c0.4-0.3,0.8-0.5,1.2-0.7c0.7-0.3,1.4-0.5,2.2-0.5
				c0.8,0,1.5,0.2,2.2,0.5c0.4,0.2,0.8,0.4,1.2,0.7c0.2,0.2,0.5,0.4,0.7,0.6c0.6,0.7,1.1,1.5,1.4,2.5H154.7z"/>
			<path fill="none" d="M169.1,30.5l-3.1-3.2l-0.7-0.7l-0.7,0.7c-0.5,0.4-1.1,0.8-1.9,1.1c-0.8,0.3-1.6,0.4-2.3,0.4
				c-0.6,0-1.2-0.1-1.7-0.3c-0.5-0.2-0.9-0.4-1.3-0.7c-0.4-0.3-0.7-0.7-1-1.1c0,0,0,0,0,0h13.4v-1h-15c0.2,0.6,0.4,1.1,0.8,1.7
				c0.3,0.5,0.7,1,1.2,1.4c0.5,0.4,1,0.7,1.6,0.9c0.6,0.2,1.3,0.3,2,0.3c0.9,0,1.8-0.2,2.7-0.5c0.9-0.3,1.6-0.7,2.2-1.3l3.1,3.2
				c-1.2,0.9-2.4,1.6-3.5,2c-0.2,0.1-0.3,0.1-0.5,0.2c-0.8,0.3-1.7,0.5-2.6,0.6c-0.5,0.1-1.1,0.1-1.6,0.1c-1.5,0-2.9-0.3-4.2-0.8
				c-0.3-0.1-0.6-0.3-0.9-0.5c-0.5-0.2-0.9-0.5-1.3-0.8c-0.4-0.3-0.8-0.6-1.1-1c-0.2-0.2-0.5-0.5-0.7-0.7c-0.5-0.6-1-1.4-1.4-2.1
				c-0.1-0.2-0.1-0.3-0.2-0.5c-0.4-1-0.7-2-0.8-3c0-0.4-0.1-0.7-0.1-1.1c0-1.5,0.3-2.8,0.8-4.1c0.6-1.3,1.3-2.4,2.3-3.4
				c1-1,2.1-1.7,3.4-2.3c1-0.4,2-0.7,3-0.8c0.4,0,0.7-0.1,1.1-0.1c1.4,0,2.7,0.3,4,0.8c1.3,0.5,2.4,1.2,3.4,2.2
				c0.9,0.8,1.6,1.8,2.2,2.9v-2c-0.4-0.6-0.9-1.2-1.4-1.7c-1.1-1-2.3-1.8-3.7-2.4c-1.4-0.6-2.9-0.9-4.4-0.9c-1.6,0-3.1,0.3-4.5,0.9
				c-1.4,0.6-2.6,1.4-3.7,2.5c-0.7,0.7-1.3,1.5-1.8,2.4c-0.2,0.4-0.5,0.8-0.7,1.3c0,0,0,0,0,0.1c-0.6,1.4-0.9,2.9-0.9,4.5
				c0,1.6,0.3,3.1,0.9,4.5c0.1,0.2,0.2,0.4,0.3,0.6c0.3,0.6,0.7,1.2,1,1.7c0.3,0.5,0.7,0.9,1.1,1.3c1,1,2.3,1.9,3.7,2.5
				c1.4,0.6,3,0.9,4.6,0.9c1.6,0,3.1-0.2,4.5-0.7c1.4-0.5,2.9-1.3,4.3-2.4l0.7-0.5v-0.4L169.1,30.5z"/>
			<path fill="#4F4F4F" d="M186.4,15.4c-0.7-0.7-1.5-1.2-2.4-1.5c-0.9-0.3-1.9-0.5-2.9-0.5c-0.9,0-1.8,0.1-2.8,0.4
				c-1,0.3-1.8,0.7-2.5,1.3l0-8.9h-5v27.9h5V19c0.2-0.1,0.3-0.2,0.5-0.3c0.5-0.3,1-0.5,1.5-0.7c0.7-0.2,1.4-0.3,2.2-0.3
				c0.5,0,1,0.1,1.5,0.3c0.2,0.1,0.5,0.2,0.7,0.3c0.2,0.1,0.4,0.3,0.6,0.5c0.4,0.4,0.6,0.8,0.9,1.4c0.1,0.1,0.1,0.3,0.1,0.4
				c0.1,0.4,0.2,0.9,0.2,1.5v12h5V21.7c0-1.4-0.2-2.6-0.6-3.7C187.7,17,187.1,16.1,186.4,15.4z"/>
			<path fill="none" d="M189.1,17.6c-0.5-1.2-1.1-2.2-1.9-2.9c-0.8-0.8-1.8-1.4-2.8-1.8c-1-0.4-2.1-0.6-3.3-0.6c-1,0-2,0.2-3.1,0.5
				c-0.4,0.1-0.8,0.3-1.2,0.4l0-7l0-1h-1h-5h-1v1v10.5v2v6.7v1v4.5v0.4v2.6v1h1h5h1v-1V19.6c0.4-0.2,0.9-0.4,1.3-0.6
				c0.6-0.2,1.2-0.3,1.8-0.3c0.4,0,0.8,0.1,1.1,0.2c0.3,0.1,0.6,0.3,0.9,0.6c0.3,0.3,0.5,0.6,0.6,1c0.2,0.4,0.3,0.9,0.3,1.5v12v1h1
				h5h1v-1V21.7C189.8,20.1,189.5,18.7,189.1,17.6z M188.7,34.1h-5V22c0-0.5-0.1-1-0.2-1.5c0-0.1-0.1-0.3-0.1-0.4
				c-0.2-0.5-0.5-1-0.9-1.4c-0.2-0.2-0.4-0.3-0.6-0.5c-0.2-0.1-0.4-0.2-0.7-0.3c-0.5-0.2-1-0.3-1.5-0.3c-0.8,0-1.5,0.1-2.2,0.3
				c-0.5,0.2-1,0.4-1.5,0.7c-0.2,0.1-0.3,0.2-0.5,0.3v15h-5V6.2h5l0,8.9c0.7-0.6,1.6-1,2.5-1.3c1-0.3,1.9-0.4,2.8-0.4
				c1,0,2,0.2,2.9,0.5c0.9,0.3,1.7,0.8,2.4,1.5c0.7,0.7,1.3,1.5,1.7,2.6c0.4,1,0.6,2.3,0.6,3.7V34.1z"/>
		</g>
		<g>
			<path fill="#4F4F4F" d="M186,6.6h-0.7v2h-0.5v-2h-0.7V6.2h1.8V6.6z M188.7,8.6h-0.5V7l-0.8,1.3L186.8,7v1.6h-0.5V6.2h0.5l0.6,1.2
				l0.7-1.2h0.5V8.6z"/>
		</g>
	</g>
</g>
</svg>
